<svg xmlns="http://www.w3.org/2000/svg" xmlns:xlink="http://www.w3.org/1999/xlink" width="500" zoomAndPan="magnify" viewBox="0 0 375 374.999991" height="500" preserveAspectRatio="xMidYMid meet" version="1.0"><defs><g/><clipPath id="0a45ce4cd7"><path d="M 3.164062 3.164062 L 371.835938 3.164062 L 371.835938 371.835938 L 3.164062 371.835938 Z M 3.164062 3.164062 " clip-rule="nonzero"/></clipPath><clipPath id="5a5177ed5b"><path d="M 187.5 3.164062 C 85.695312 3.164062 3.164062 85.695312 3.164062 187.5 C 3.164062 289.304688 85.695312 371.835938 187.5 371.835938 C 289.304688 371.835938 371.835938 289.304688 371.835938 187.5 C 371.835938 85.695312 289.304688 3.164062 187.5 3.164062 Z M 187.5 3.164062 " clip-rule="nonzero"/></clipPath><clipPath id="37be6bd3b3"><path d="M 13.128906 13.128906 L 361.414062 13.128906 L 361.414062 361.414062 L 13.128906 361.414062 Z M 13.128906 13.128906 " clip-rule="nonzero"/></clipPath><clipPath id="e5eda52693"><path d="M 104.054688 52 L 270.5 52 L 270.5 218.910156 L 104.054688 218.910156 Z M 104.054688 52 " clip-rule="nonzero"/></clipPath></defs><g clip-path="url(#0a45ce4cd7)"><g clip-path="url(#5a5177ed5b)"><path fill="#2563eb" d="M 3.164062 3.164062 L 371.835938 3.164062 L 371.835938 371.835938 L 3.164062 371.835938 Z M 3.164062 3.164062 " fill-opacity="1" fill-rule="nonzero"/></g></g><g clip-path="url(#37be6bd3b3)"><path fill="#ffffff" d="M 361.867188 187.496094 C 361.867188 190.351562 361.796875 193.203125 361.65625 196.054688 C 361.515625 198.902344 361.304688 201.75 361.027344 204.589844 C 360.746094 207.429688 360.398438 210.257812 359.976562 213.082031 C 359.558594 215.90625 359.070312 218.714844 358.515625 221.515625 C 357.957031 224.3125 357.332031 227.097656 356.640625 229.863281 C 355.945312 232.632812 355.1875 235.382812 354.355469 238.113281 C 353.527344 240.84375 352.632812 243.554688 351.671875 246.238281 C 350.710938 248.925781 349.683594 251.589844 348.59375 254.226562 C 347.5 256.863281 346.34375 259.46875 345.125 262.050781 C 343.902344 264.628906 342.621094 267.175781 341.277344 269.695312 C 339.929688 272.210938 338.523438 274.691406 337.058594 277.140625 C 335.589844 279.589844 334.066406 282 332.480469 284.371094 C 330.894531 286.742188 329.25 289.074219 327.550781 291.367188 C 325.851562 293.660156 324.097656 295.910156 322.285156 298.117188 C 320.476562 300.320312 318.613281 302.480469 316.695312 304.597656 C 314.777344 306.710938 312.8125 308.777344 310.792969 310.792969 C 308.777344 312.8125 306.710938 314.777344 304.597656 316.695312 C 302.480469 318.613281 300.320312 320.476562 298.117188 322.285156 C 295.910156 324.097656 293.660156 325.851562 291.367188 327.550781 C 289.074219 329.25 286.742188 330.894531 284.371094 332.480469 C 282 334.066406 279.589844 335.589844 277.140625 337.058594 C 274.691406 338.523438 272.210938 339.929688 269.695312 341.277344 C 267.175781 342.621094 264.628906 343.902344 262.050781 345.125 C 259.46875 346.34375 256.863281 347.5 254.226562 348.59375 C 251.589844 349.683594 248.925781 350.710938 246.238281 351.671875 C 243.554688 352.632812 240.84375 353.527344 238.113281 354.355469 C 235.382812 355.1875 232.632812 355.945312 229.863281 356.640625 C 227.097656 357.332031 224.3125 357.957031 221.515625 358.515625 C 218.714844 359.070312 215.90625 359.558594 213.082031 359.976562 C 210.257812 360.398438 207.429688 360.746094 204.589844 361.027344 C 201.75 361.304688 198.902344 361.515625 196.054688 361.65625 C 193.203125 361.796875 190.351562 361.867188 187.496094 361.867188 C 184.644531 361.867188 181.792969 361.796875 178.941406 361.65625 C 176.089844 361.515625 173.246094 361.304688 170.40625 361.027344 C 167.566406 360.746094 164.734375 360.398438 161.910156 359.976562 C 159.089844 359.558594 156.277344 359.070312 153.480469 358.515625 C 150.679688 357.957031 147.898438 357.332031 145.128906 356.640625 C 142.359375 355.945312 139.613281 355.1875 136.878906 354.355469 C 134.148438 353.527344 131.441406 352.632812 128.753906 351.671875 C 126.066406 350.710938 123.40625 349.683594 120.769531 348.59375 C 118.132812 347.5 115.523438 346.34375 112.945312 345.125 C 110.367188 343.902344 107.816406 342.621094 105.300781 341.277344 C 102.785156 339.929688 100.300781 338.523438 97.855469 337.058594 C 95.40625 335.589844 92.996094 334.066406 90.625 332.480469 C 88.25 330.894531 85.917969 329.25 83.625 327.550781 C 81.332031 325.851562 79.085938 324.097656 76.878906 322.285156 C 74.671875 320.476562 72.511719 318.613281 70.398438 316.695312 C 68.285156 314.777344 66.21875 312.8125 64.199219 310.792969 C 62.183594 308.777344 60.214844 306.710938 58.296875 304.597656 C 56.382812 302.480469 54.519531 300.320312 52.707031 298.117188 C 50.898438 295.910156 49.144531 293.660156 47.441406 291.367188 C 45.742188 289.074219 44.101562 286.742188 42.515625 284.371094 C 40.929688 282 39.402344 279.589844 37.9375 277.140625 C 36.46875 274.691406 35.0625 272.210938 33.71875 269.695312 C 32.371094 267.175781 31.089844 264.628906 29.871094 262.050781 C 28.648438 259.46875 27.492188 256.863281 26.402344 254.226562 C 25.308594 251.589844 24.28125 248.925781 23.320312 246.238281 C 22.359375 243.554688 21.464844 240.84375 20.636719 238.113281 C 19.808594 235.382812 19.046875 232.632812 18.355469 229.863281 C 17.660156 227.097656 17.035156 224.3125 16.480469 221.515625 C 15.921875 218.714844 15.433594 215.90625 15.015625 213.082031 C 14.597656 210.257812 14.25 207.429688 13.96875 204.589844 C 13.6875 201.75 13.480469 198.902344 13.339844 196.054688 C 13.199219 193.203125 13.128906 190.351562 13.128906 187.496094 C 13.128906 184.644531 13.199219 181.792969 13.339844 178.941406 C 13.480469 176.089844 13.6875 173.246094 13.96875 170.40625 C 14.25 167.566406 14.597656 164.734375 15.015625 161.910156 C 15.433594 159.089844 15.921875 156.277344 16.480469 153.480469 C 17.035156 150.679688 17.660156 147.898438 18.355469 145.128906 C 19.046875 142.359375 19.808594 139.613281 20.636719 136.878906 C 21.464844 134.148438 22.359375 131.441406 23.320312 128.753906 C 24.28125 126.066406 25.308594 123.40625 26.402344 120.769531 C 27.492188 118.132812 28.648438 115.523438 29.871094 112.945312 C 31.089844 110.367188 32.371094 107.816406 33.71875 105.300781 C 35.0625 102.785156 36.46875 100.300781 37.9375 97.855469 C 39.402344 95.40625 40.929688 92.996094 42.515625 90.625 C 44.101562 88.25 45.742188 85.917969 47.441406 83.625 C 49.144531 81.332031 50.898438 79.085938 52.707031 76.878906 C 54.519531 74.671875 56.382812 72.511719 58.296875 70.398438 C 60.214844 68.285156 62.183594 66.21875 64.199219 64.199219 C 66.21875 62.183594 68.285156 60.214844 70.398438 58.296875 C 72.511719 56.382812 74.671875 54.519531 76.878906 52.707031 C 79.085938 50.898438 81.332031 49.144531 83.625 47.441406 C 85.917969 45.742188 88.25 44.101562 90.625 42.515625 C 92.996094 40.929688 95.40625 39.402344 97.855469 37.9375 C 100.300781 36.46875 102.785156 35.0625 105.300781 33.71875 C 107.816406 32.371094 110.367188 31.089844 112.945312 29.871094 C 115.523438 28.648438 118.132812 27.492188 120.769531 26.402344 C 123.40625 25.308594 126.066406 24.28125 128.753906 23.320312 C 131.441406 22.359375 134.148438 21.464844 136.878906 20.636719 C 139.613281 19.808594 142.359375 19.046875 145.128906 18.355469 C 147.898438 17.660156 150.679688 17.035156 153.480469 16.480469 C 156.277344 15.921875 159.089844 15.433594 161.910156 15.015625 C 164.734375 14.597656 167.566406 14.25 170.40625 13.96875 C 173.246094 13.6875 176.089844 13.480469 178.941406 13.339844 C 181.792969 13.199219 184.644531 13.128906 187.496094 13.128906 C 190.351562 13.128906 193.203125 13.199219 196.054688 13.339844 C 198.902344 13.480469 201.75 13.6875 204.589844 13.96875 C 207.429688 14.25 210.257812 14.597656 213.082031 15.015625 C 215.90625 15.433594 218.714844 15.921875 221.515625 16.480469 C 224.3125 17.035156 227.097656 17.660156 229.863281 18.355469 C 232.632812 19.046875 235.382812 19.808594 238.113281 20.636719 C 240.84375 21.464844 243.554688 22.359375 246.238281 23.320312 C 248.925781 24.28125 251.589844 25.308594 254.226562 26.402344 C 256.863281 27.492188 259.46875 28.648438 262.050781 29.871094 C 264.628906 31.089844 267.175781 32.371094 269.695312 33.71875 C 272.210938 35.0625 274.691406 36.46875 277.140625 37.9375 C 279.589844 39.402344 282 40.929688 284.371094 42.515625 C 286.742188 44.101562 289.074219 45.742188 291.367188 47.441406 C 293.660156 49.144531 295.910156 50.898438 298.117188 52.707031 C 300.320312 54.519531 302.480469 56.382812 304.597656 58.296875 C 306.710938 60.214844 308.777344 62.183594 310.792969 64.199219 C 312.8125 66.21875 314.777344 68.285156 316.695312 70.398438 C 318.613281 72.511719 320.476562 74.671875 322.285156 76.878906 C 324.097656 79.085938 325.851562 81.332031 327.550781 83.625 C 329.25 85.917969 330.894531 88.25 332.480469 90.625 C 334.066406 92.996094 335.589844 95.40625 337.058594 97.855469 C 338.523438 100.300781 339.929688 102.785156 341.277344 105.300781 C 342.621094 107.816406 343.902344 110.367188 345.125 112.945312 C 346.34375 115.523438 347.5 118.132812 348.59375 120.769531 C 349.683594 123.40625 350.710938 126.066406 351.671875 128.753906 C 352.632812 131.441406 353.527344 134.148438 354.355469 136.878906 C 355.1875 139.613281 355.945312 142.359375 356.640625 145.128906 C 357.332031 147.898438 357.957031 150.679688 358.515625 153.480469 C 359.070312 156.277344 359.558594 159.089844 359.976562 161.910156 C 360.398438 164.734375 360.746094 167.566406 361.027344 170.40625 C 361.304688 173.246094 361.515625 176.089844 361.65625 178.941406 C 361.796875 181.792969 361.867188 184.644531 361.867188 187.496094 Z M 361.867188 187.496094 " fill-opacity="1" fill-rule="nonzero"/></g><path fill="#2563eb" d="M 187.496094 345.234375 C 100.441406 345.234375 29.761719 274.550781 29.761719 187.496094 C 29.761719 100.441406 100.441406 29.761719 187.496094 29.761719 C 274.550781 29.761719 345.234375 100.441406 345.234375 187.496094 C 345.234375 274.550781 274.550781 345.234375 187.496094 345.234375 Z M 187.496094 33.65625 C 102.523438 33.65625 33.65625 102.523438 33.65625 187.496094 C 33.65625 272.472656 102.78125 341.335938 187.496094 341.335938 C 272.472656 341.335938 341.335938 272.210938 341.335938 187.496094 C 341.335938 102.523438 272.472656 33.65625 187.496094 33.65625 Z M 187.496094 33.65625 " fill-opacity="1" fill-rule="nonzero"/><g clip-path="url(#e5eda52693)"><path fill="#2563eb" d="M 270.269531 94.460938 L 254.386719 56.324219 C 253.039062 53.089844 249.308594 51.550781 246.074219 52.894531 L 236.695312 56.789062 C 235.117188 57.445312 233.890625 58.667969 233.246094 60.234375 C 232.597656 61.804688 232.605469 63.535156 233.261719 65.113281 L 234.15625 67.261719 L 228.4375 70.039062 C 226.316406 71.074219 224.179688 71.253906 221.910156 70.597656 L 202.402344 64.929688 C 195.871094 63.035156 188.449219 65.921875 182.484375 68.246094 C 182.082031 68.402344 181.6875 68.554688 181.304688 68.703125 L 144.691406 82.808594 C 138.546875 85.179688 134.753906 92.664062 136.738281 98.519531 C 137.742188 101.488281 140.136719 103.644531 143.476562 104.585938 C 144.628906 104.910156 145.894531 105.09375 147.261719 105.136719 C 140.601562 113.886719 136.984375 124.535156 136.984375 135.679688 C 136.984375 144.871094 139.453125 153.761719 144.128906 161.574219 C 142.847656 162.128906 141.535156 162.75 140.164062 163.421875 C 135.554688 165.675781 130.964844 167.863281 126.601562 169.925781 L 125.851562 168.117188 C 124.503906 164.878906 120.773438 163.339844 117.535156 164.6875 L 108.15625 168.582031 C 106.582031 169.234375 105.355469 170.460938 104.710938 172.027344 C 104.0625 173.59375 104.070312 175.328125 104.726562 176.902344 L 120.605469 215.039062 C 121.621094 217.480469 123.996094 218.953125 126.488281 218.953125 C 127.300781 218.953125 128.125 218.796875 128.917969 218.46875 L 138.296875 214.574219 C 139.875 213.917969 141.101562 212.695312 141.746094 211.125 C 142.394531 209.558594 142.386719 207.828125 141.730469 206.25 L 140.835938 204.101562 L 146.554688 201.324219 C 148.679688 200.292969 150.8125 200.109375 153.082031 200.769531 L 172.589844 206.433594 C 174.070312 206.863281 175.601562 207.046875 177.148438 207.046875 C 182.414062 207.046875 187.894531 204.914062 192.503906 203.121094 C 192.90625 202.964844 193.300781 202.808594 193.6875 202.660156 L 230.300781 188.554688 C 236.445312 186.183594 240.238281 178.699219 238.253906 172.84375 C 237.25 169.875 234.855469 167.71875 231.515625 166.777344 C 230.363281 166.453125 229.097656 166.269531 227.730469 166.226562 C 234.390625 157.476562 238.007812 146.828125 238.007812 135.683594 C 238.007812 126.492188 235.539062 117.601562 230.863281 109.789062 C 232.144531 109.234375 233.457031 108.613281 234.828125 107.941406 C 239.441406 105.6875 244.03125 103.5 248.386719 101.4375 L 249.140625 103.246094 C 250.15625 105.6875 252.53125 107.164062 255.023438 107.164062 C 255.835938 107.164062 256.660156 107.007812 257.457031 106.675781 L 266.832031 102.78125 C 268.410156 102.128906 269.636719 100.902344 270.28125 99.335938 C 270.929688 97.769531 270.925781 96.035156 270.269531 94.460938 Z M 137.382812 209.328125 C 137.21875 209.726562 136.898438 210.042969 136.488281 210.214844 L 127.109375 214.109375 C 126.273438 214.457031 125.3125 214.058594 124.960938 213.222656 L 109.082031 175.089844 C 108.910156 174.675781 108.90625 174.230469 109.074219 173.828125 C 109.238281 173.425781 109.554688 173.109375 109.96875 172.941406 L 119.347656 169.046875 C 119.550781 168.960938 119.765625 168.917969 119.972656 168.917969 C 120.617188 168.917969 121.230469 169.300781 121.492188 169.929688 L 137.375 208.066406 C 137.546875 208.476562 137.550781 208.925781 137.382812 209.328125 Z M 233.785156 174.359375 C 234.960938 177.835938 232.394531 182.6875 228.601562 184.148438 L 191.992188 198.257812 C 191.601562 198.40625 191.199219 198.5625 190.792969 198.722656 C 185.496094 200.785156 178.898438 203.351562 173.90625 201.898438 L 154.398438 196.234375 C 151.003906 195.25 147.667969 195.535156 144.488281 197.078125 L 139.019531 199.738281 L 128.417969 174.285156 C 132.851562 172.191406 137.53125 169.960938 142.238281 167.660156 C 151.660156 163.054688 156.675781 161.183594 167.632812 168.953125 C 167.863281 169.113281 168.117188 169.234375 168.390625 169.308594 L 186.078125 174.046875 C 189.242188 174.894531 191.125 178.160156 190.277344 181.324219 C 189.429688 184.488281 186.164062 186.371094 183 185.523438 L 159.496094 179.226562 C 158.238281 178.890625 156.941406 179.632812 156.605469 180.894531 C 156.265625 182.152344 157.015625 183.445312 158.273438 183.785156 L 181.777344 190.082031 C 187.457031 191.601562 193.316406 188.222656 194.835938 182.542969 C 195.125 181.460938 195.238281 180.371094 195.191406 179.304688 L 219.324219 172.222656 C 227.148438 169.929688 232.554688 170.726562 233.785156 174.359375 Z M 233.285156 135.683594 C 233.285156 147.355469 228.914062 158.425781 220.960938 166.933594 C 220.003906 167.140625 219.015625 167.394531 217.996094 167.695312 L 193.933594 174.753906 C 192.589844 172.246094 190.253906 170.28125 187.296875 169.488281 L 170.015625 164.855469 C 161.167969 158.675781 155.027344 158.027344 148.632812 159.90625 C 144.09375 152.648438 141.703125 144.308594 141.703125 135.679688 C 141.703125 124.007812 146.078125 112.9375 154.03125 104.429688 C 154.988281 104.222656 155.976562 103.964844 156.996094 103.667969 L 181.0625 96.605469 C 181.117188 96.707031 181.171875 96.804688 181.230469 96.902344 C 182.65625 99.375 184.953125 101.140625 187.695312 101.875 L 204.976562 106.507812 C 211.054688 110.75 215.855469 112.390625 220.335938 112.390625 C 222.378906 112.390625 224.359375 112.046875 226.363281 111.457031 C 230.898438 118.714844 233.285156 127.054688 233.285156 135.683594 Z M 232.753906 103.703125 C 223.328125 108.308594 218.3125 110.179688 207.355469 102.410156 C 207.128906 102.25 206.875 102.128906 206.601562 102.054688 L 188.914062 97.316406 C 187.390625 96.90625 186.113281 95.921875 185.316406 94.542969 C 184.519531 93.164062 184.304688 91.5625 184.714844 90.039062 C 185.121094 88.515625 186.109375 87.238281 187.488281 86.441406 C 188.867188 85.644531 190.464844 85.429688 191.992188 85.839844 L 215.496094 92.136719 C 216.753906 92.476562 218.050781 91.726562 218.386719 90.46875 C 218.726562 89.210938 217.976562 87.917969 216.71875 87.578125 L 193.210938 81.28125 C 190.472656 80.546875 187.601562 80.925781 185.128906 82.355469 C 182.65625 83.78125 180.890625 86.078125 180.15625 88.820312 C 179.867188 89.890625 179.75 90.980469 179.800781 92.058594 L 155.667969 99.136719 C 147.84375 101.433594 142.4375 100.636719 141.207031 97.003906 C 140.027344 93.523438 142.597656 88.675781 146.390625 87.214844 L 183 73.105469 C 183.390625 72.957031 183.789062 72.800781 184.195312 72.640625 C 189.496094 70.578125 196.09375 68.011719 201.085938 69.464844 L 220.59375 75.128906 C 223.988281 76.113281 227.324219 75.828125 230.503906 74.285156 L 235.972656 71.625 L 246.574219 97.074219 C 242.140625 99.171875 237.460938 101.398438 232.753906 103.703125 Z M 265.917969 97.535156 C 265.753906 97.9375 265.4375 98.253906 265.023438 98.421875 L 255.644531 102.316406 C 254.808594 102.664062 253.847656 102.269531 253.5 101.433594 L 237.617188 63.296875 C 237.445312 62.886719 237.441406 62.4375 237.609375 62.035156 C 237.773438 61.636719 238.09375 61.320312 238.503906 61.148438 L 247.882812 57.253906 C 248.085938 57.167969 248.300781 57.128906 248.511719 57.128906 C 249.152344 57.128906 249.765625 57.507812 250.03125 58.140625 L 265.910156 96.273438 C 266.082031 96.6875 266.085938 97.132812 265.917969 97.535156 Z M 206.269531 126.054688 L 197.121094 126.054688 L 197.121094 116.90625 C 197.121094 115.605469 196.066406 114.546875 194.761719 114.546875 L 180.230469 114.546875 C 178.925781 114.546875 177.871094 115.605469 177.871094 116.90625 L 177.871094 126.054688 L 168.722656 126.054688 C 167.417969 126.054688 166.363281 127.113281 166.363281 128.414062 L 166.363281 142.945312 C 166.363281 144.25 167.417969 145.308594 168.722656 145.308594 L 177.871094 145.308594 L 177.871094 154.457031 C 177.871094 155.757812 178.925781 156.816406 180.230469 156.816406 L 194.761719 156.816406 C 196.066406 156.816406 197.121094 155.757812 197.121094 154.457031 L 197.121094 145.308594 L 206.269531 145.308594 C 207.574219 145.308594 208.628906 144.25 208.628906 142.945312 L 208.628906 128.414062 C 208.628906 127.113281 207.574219 126.054688 206.269531 126.054688 Z M 203.910156 140.585938 L 194.761719 140.585938 C 193.457031 140.585938 192.402344 141.644531 192.402344 142.949219 L 192.402344 152.097656 L 182.589844 152.097656 L 182.589844 142.949219 C 182.589844 141.644531 181.535156 140.585938 180.230469 140.585938 L 171.082031 140.585938 L 171.082031 130.777344 L 180.230469 130.777344 C 181.535156 130.777344 182.589844 129.71875 182.589844 128.417969 L 182.589844 119.265625 L 192.402344 119.265625 L 192.402344 128.417969 C 192.402344 129.71875 193.457031 130.777344 194.761719 130.777344 L 203.910156 130.777344 Z M 203.910156 140.585938 " fill-opacity="1" fill-rule="nonzero"/></g><g fill="#2563eb" fill-opacity="1"><g transform="translate(71.338633, 261.737121)"><g><path d="M 5.390625 0.15625 L 4.359375 -0.515625 L 3.78125 -1.609375 L 3.84375 -13.0625 L 3.734375 -14.046875 L 3.890625 -19.296875 L 3.78125 -20.328125 L 3.84375 -28.625 L 3.734375 -29.5625 L 3.890625 -31.578125 L 3.734375 -34.75 L 4.296875 -35.828125 L 5.4375 -36.359375 L 6.890625 -35.9375 L 8.09375 -35.0625 L 9.4375 -33.65625 L 10.265625 -32.9375 L 11.609375 -31.328125 L 12.34375 -30.703125 L 17.0625 -25.46875 L 18.203125 -24.421875 L 19.140625 -23.234375 L 19.859375 -22.5 L 20.484375 -21.625 L 21.578125 -21.203125 L 22.5 -21.828125 L 25.671875 -25.046875 L 26.34375 -25.9375 L 30.90625 -30.59375 L 31.640625 -31.53125 L 32.25 -32.09375 L 32.9375 -32.9375 L 35.109375 -35.21875 L 36.203125 -35.890625 L 37.703125 -36.359375 L 38.796875 -35.78125 L 39.40625 -34.6875 L 39.3125 -33.703125 L 39.359375 -31.578125 L 39.3125 -30.703125 L 39.40625 -28.46875 L 39.359375 -27.484375 L 39.40625 -22.34375 L 39.3125 -21.203125 L 39.40625 -5.65625 L 39.3125 -4.609375 L 39.46875 -1.921875 L 38.84375 -0.421875 L 37.75 0.15625 L 31.484375 -0.046875 L 30.390625 -0.359375 L 29.96875 -1.5625 L 29.96875 -2.328125 L 29.875 -4.671875 L 29.96875 -5.59375 L 29.875 -7.515625 L 29.96875 -9.546875 L 29.8125 -11.609375 L 29.921875 -14.46875 L 29.515625 -15.25 L 28.828125 -14.9375 L 26.703125 -12.75 L 25.984375 -12.234375 L 24.53125 -10.53125 L 23.90625 -9.90625 L 23.1875 -9.125 L 22.140625 -8.34375 L 21 -8.40625 L 19.90625 -9.171875 L 18.515625 -10.53125 L 17.84375 -11.359375 L 15.71875 -13.484375 L 15.09375 -14.265625 L 14.265625 -14.9375 L 13.75 -15.140625 L 13.28125 -14.671875 L 13.28125 -12.65625 L 13.375 -11.515625 L 13.28125 -9.640625 L 13.328125 -8.5625 L 13.171875 -6.953125 L 13.328125 -1.5 L 12.703125 -0.578125 L 11.25 0.046875 L 9.59375 -0.046875 L 8.453125 0.109375 L 6.4375 0 Z M 5.390625 0.15625 "/></g></g></g><g fill="#2563eb" fill-opacity="1"><g transform="translate(114.685725, 261.737121)"><g><path d="M 20.796875 0.671875 L 17.6875 0.515625 L 13.28125 -0.78125 L 12.296875 -1.1875 L 8.765625 -3.0625 L 8.09375 -3.84375 L 6.640625 -5.234375 L 4.203125 -8.5625 L 3.6875 -9.484375 L 3.375 -10.578125 L 2.59375 -12.34375 L 2.015625 -15.609375 L 2.234375 -21.625 L 2.640625 -23.859375 L 3.625 -26.703125 L 4.09375 -27.59375 L 5.859375 -30.1875 L 7.265625 -31.734375 L 8.921875 -32.875 L 9.640625 -33.5 L 12.296875 -35.15625 L 14.265625 -35.671875 L 15.1875 -36.09375 L 16.234375 -36.40625 L 17.265625 -36.609375 L 20.90625 -36.8125 L 23.34375 -36.765625 L 30.125 -34.640625 L 32.78125 -32.984375 L 35 -30.953125 L 35.671875 -30.03125 L 36.296875 -29.40625 L 36.96875 -28.515625 L 37.34375 -27.59375 L 38.265625 -25.875 L 38.53125 -24.6875 L 38.953125 -23.59375 L 39.359375 -21.671875 L 39.625 -18.09375 L 39.359375 -14.46875 L 39.15625 -13.328125 L 38.84375 -12.5 L 38.6875 -11.453125 L 38.328125 -10.46875 L 36.296875 -6.890625 L 35.625 -5.96875 L 32 -2.484375 L 27.375 -0.421875 L 25.40625 0.203125 Z M 19.34375 -8.453125 L 22.34375 -8.5625 L 23.34375 -8.8125 L 24.265625 -8.921875 L 25.09375 -9.390625 L 26.03125 -9.796875 L 27.640625 -11.046875 L 28.265625 -11.984375 L 28.734375 -12.75 L 29.296875 -13.53125 L 29.765625 -15.65625 L 30.078125 -18.25 L 29.875 -20.484375 L 29.515625 -21.421875 L 29.203125 -22.453125 L 28.78125 -23.390625 L 27.59375 -25.15625 L 25.984375 -26.34375 L 23.234375 -27.53125 L 20.75 -27.6875 L 18.359375 -27.484375 L 17.265625 -27.21875 L 16.328125 -26.765625 L 14.828125 -25.71875 L 14.046875 -25.046875 L 13.375 -24.21875 L 12.90625 -23.34375 L 12.296875 -22.609375 L 11.984375 -21.671875 L 11.609375 -19.765625 L 11.5625 -18.203125 L 11.828125 -15.609375 L 12.8125 -12.703125 L 13.484375 -11.984375 L 14 -11.25 L 15.609375 -9.859375 L 17.375 -8.921875 L 18.3125 -8.8125 Z M 19.34375 -8.453125 "/></g></g></g><g fill="#2563eb" fill-opacity="1"><g transform="translate(156.26991, 261.737121)"><g><path d="M 11.875 -1.5625 L 11.921875 -3.53125 L 11.828125 -4.515625 L 11.921875 -8.5 L 11.828125 -9.546875 L 11.875 -13.640625 L 11.609375 -15.046875 L 11.09375 -16.484375 L 7.109375 -22.8125 L 6.6875 -23.75 L 5.4375 -25.40625 L 3.3125 -29.09375 L 2.75 -29.8125 L 0.515625 -33.5 L 0 -34.6875 L 0.15625 -35.828125 L 1.1875 -36.359375 L 3.578125 -36.203125 L 6.21875 -36.40625 L 7.109375 -36.203125 L 8.1875 -36.25 L 9.390625 -35.78125 L 10.46875 -34.796875 L 12.90625 -30.234375 L 13.484375 -29.359375 L 15.046875 -26.453125 L 15.609375 -25.625 L 16.1875 -24.640625 L 16.75 -24.640625 L 17.421875 -25.515625 L 18.3125 -27.484375 L 18.828125 -28.359375 L 19.34375 -29.453125 L 20.484375 -31.109375 L 21.109375 -32.671875 L 22.453125 -34.90625 L 23.390625 -35.78125 L 24.78125 -36.296875 L 25.671875 -36.25 L 27.6875 -36.296875 L 28.734375 -36.140625 L 29.8125 -36.25 L 31.84375 -36.203125 L 32.78125 -35.984375 L 32.984375 -34.84375 L 32.40625 -33.546875 L 29.09375 -28.0625 L 28.46875 -27.328125 L 21.890625 -16.484375 L 21.359375 -15.140625 L 21.0625 -13.640625 L 21.109375 -10.625 L 20.953125 -9.703125 L 20.953125 -8.65625 L 21.0625 -7.625 L 20.90625 -1.609375 L 20.484375 -0.515625 L 19.453125 0.046875 L 18.40625 -0.046875 L 16.953125 0.046875 L 15.34375 -0.046875 L 14.421875 0.046875 L 13.375 0 L 12.296875 -0.421875 Z M 11.875 -1.5625 "/></g></g></g><g fill="#2563eb" fill-opacity="1"><g transform="translate(189.246897, 261.737121)"><g><path d="M 30.59375 -0.875 L 29.8125 -1.5625 L 28.46875 -3.0625 L 20.4375 -11.046875 L 19.546875 -11.609375 L 18.875 -12.390625 L 15.1875 -15.921875 L 14.515625 -16.796875 L 13.84375 -17.0625 L 13.484375 -16.1875 L 13.375 -15.140625 L 13.328125 -2.015625 L 12.8125 -0.421875 L 11.765625 0.109375 L 10.6875 0.15625 L 8.65625 0 L 7.515625 0.109375 L 5.390625 0 L 4.296875 -0.359375 L 3.84375 -1.34375 L 3.734375 -5.703125 L 3.84375 -6.6875 L 3.734375 -15.1875 L 3.890625 -16.078125 L 3.78125 -18.203125 L 3.84375 -19.078125 L 3.84375 -34.796875 L 4.296875 -35.78125 L 5.5 -36.296875 L 7.046875 -35.9375 L 8.25 -35.3125 L 9.03125 -34.6875 L 19.234375 -24.375 L 20.6875 -23.234375 L 24.375 -19.546875 L 25.15625 -19.1875 L 25.46875 -20.0625 L 25.5625 -29.359375 L 25.46875 -30.5 L 25.625 -32.671875 L 25.46875 -33.5 L 25.515625 -34.59375 L 26.078125 -35.671875 L 27.078125 -36.25 L 33.5 -36.296875 L 34.53125 -35.734375 L 35.0625 -34.6875 L 35.21875 -27.484375 L 35.0625 -26.234375 L 35.0625 -21.109375 L 35.21875 -20.21875 L 35.109375 -1.296875 L 34.59375 -0.265625 L 33.453125 0.109375 L 32 -0.046875 Z M 30.59375 -0.875 "/></g></g></g><g fill="#2563eb" fill-opacity="1"><g transform="translate(228.342243, 261.737121)"><g><path d="M 30.59375 0.109375 L 29.515625 0 L 28.3125 -0.515625 L 27.28125 -1.296875 L 26.96875 -2.234375 L 26.5 -3.21875 L 25.515625 -4.046875 L 24.375 -4.609375 L 23.234375 -4.453125 L 22.296875 -4.5625 L 17.21875 -4.515625 L 16.28125 -4.671875 L 14.109375 -4.453125 L 13.125 -4.609375 L 12.03125 -4.046875 L 11.046875 -3.0625 L 10.109375 -1.34375 L 9.125 -0.421875 L 7.9375 -0.046875 L 5.03125 0.046875 L 4 -0.046875 L 1.96875 0.046875 L 0.9375 -0.265625 L 0.671875 -1.5625 L 0.984375 -2.59375 L 2.015625 -4.671875 L 2.28125 -5.59375 L 2.859375 -6.328125 L 3.625 -8.40625 L 4.5625 -10.0625 L 4.921875 -11.09375 L 5.4375 -11.875 L 5.75 -13.015625 L 11.046875 -24.109375 L 11.359375 -25.046875 L 11.921875 -26.03125 L 12.1875 -27.078125 L 12.75 -27.84375 L 14.828125 -32.625 L 15.296875 -33.34375 L 15.65625 -34.375 L 16.125 -35.265625 L 17.0625 -36.140625 L 18.71875 -36.71875 L 20.4375 -36.203125 L 21.3125 -35.265625 L 22.296875 -33.453125 L 22.609375 -32.515625 L 23.1875 -31.578125 L 23.5 -30.546875 L 26.921875 -23.34375 L 27.28125 -22.25 L 28.359375 -20.328125 L 28.671875 -19.5 L 29.140625 -18.71875 L 29.453125 -17.578125 L 29.96875 -16.59375 L 30.5 -15.8125 L 32.46875 -11.09375 L 33.5 -9.234375 L 34.234375 -7.3125 L 35.625 -4.609375 L 36.40625 -2.703125 L 36.765625 -1.5 L 36.609375 -0.265625 L 35.15625 0 L 33.546875 0.046875 L 32.5625 -0.046875 Z M 18.828125 -12.8125 L 20.90625 -12.859375 L 21.671875 -13.28125 L 21.890625 -14.203125 L 19.453125 -19.90625 L 18.71875 -20.328125 L 18.15625 -19.859375 L 15.71875 -14.265625 L 15.765625 -13.28125 L 16.59375 -12.90625 L 17.78125 -13.015625 Z M 18.828125 -12.8125 "/></g></g></g><g fill="#2563eb" fill-opacity="1"><g transform="translate(265.985785, 261.737121)"><g><path d="M 30.59375 0.109375 L 29.515625 0 L 28.3125 -0.515625 L 27.28125 -1.296875 L 26.96875 -2.234375 L 26.5 -3.21875 L 25.515625 -4.046875 L 24.375 -4.609375 L 23.234375 -4.453125 L 22.296875 -4.5625 L 17.21875 -4.515625 L 16.28125 -4.671875 L 14.109375 -4.453125 L 13.125 -4.609375 L 12.03125 -4.046875 L 11.046875 -3.0625 L 10.109375 -1.34375 L 9.125 -0.421875 L 7.9375 -0.046875 L 5.03125 0.046875 L 4 -0.046875 L 1.96875 0.046875 L 0.9375 -0.265625 L 0.671875 -1.5625 L 0.984375 -2.59375 L 2.015625 -4.671875 L 2.28125 -5.59375 L 2.859375 -6.328125 L 3.625 -8.40625 L 4.5625 -10.0625 L 4.921875 -11.09375 L 5.4375 -11.875 L 5.75 -13.015625 L 11.046875 -24.109375 L 11.359375 -25.046875 L 11.921875 -26.03125 L 12.1875 -27.078125 L 12.75 -27.84375 L 14.828125 -32.625 L 15.296875 -33.34375 L 15.65625 -34.375 L 16.125 -35.265625 L 17.0625 -36.140625 L 18.71875 -36.71875 L 20.4375 -36.203125 L 21.3125 -35.265625 L 22.296875 -33.453125 L 22.609375 -32.515625 L 23.1875 -31.578125 L 23.5 -30.546875 L 26.921875 -23.34375 L 27.28125 -22.25 L 28.359375 -20.328125 L 28.671875 -19.5 L 29.140625 -18.71875 L 29.453125 -17.578125 L 29.96875 -16.59375 L 30.5 -15.8125 L 32.46875 -11.09375 L 33.5 -9.234375 L 34.234375 -7.3125 L 35.625 -4.609375 L 36.40625 -2.703125 L 36.765625 -1.5 L 36.609375 -0.265625 L 35.15625 0 L 33.546875 0.046875 L 32.5625 -0.046875 Z M 18.828125 -12.8125 L 20.90625 -12.859375 L 21.671875 -13.28125 L 21.890625 -14.203125 L 19.453125 -19.90625 L 18.71875 -20.328125 L 18.15625 -19.859375 L 15.71875 -14.265625 L 15.765625 -13.28125 L 16.59375 -12.90625 L 17.78125 -13.015625 Z M 18.828125 -12.8125 "/></g></g></g><g fill="#2563eb" fill-opacity="1"><g transform="translate(82.276222, 284.409445)"><g><path d="M 3.296875 0.078125 L 3.125 0.0625 L 2.953125 0.03125 L 2.765625 -0.03125 L 2.59375 -0.078125 L 2.15625 -0.25 L 1.75 -0.46875 L 1.328125 -0.84375 L 0.9375 -1.265625 L 0.53125 -2.09375 L 0.390625 -2.625 L 0.34375 -3.3125 L 0.4375 -4.140625 L 0.53125 -4.53125 L 0.765625 -5.0625 L 0.953125 -5.328125 L 1.203125 -5.65625 L 1.609375 -6.015625 L 1.890625 -6.234375 L 2.59375 -6.5625 L 3.515625 -6.75 L 4.09375 -6.734375 L 4.28125 -6.703125 L 4.46875 -6.703125 L 5.375 -6.390625 L 6.015625 -5.984375 L 6.28125 -5.703125 L 6.390625 -5.53125 L 6.53125 -5.375 L 6.609375 -5.21875 L 6.71875 -5.0625 L 6.765625 -4.859375 L 6.84375 -4.6875 L 6.890625 -4.484375 L 6.828125 -4.296875 L 6.671875 -4.21875 L 6.390625 -4.1875 L 6.125 -4.21875 L 5.734375 -4.21875 L 5.5625 -4.203125 L 5.34375 -4.3125 L 5.15625 -4.484375 L 5.0625 -4.625 L 4.78125 -4.90625 L 4.640625 -5 L 4.484375 -5.078125 L 4.1875 -5.15625 L 3.78125 -5.171875 L 3.140625 -5.09375 L 2.890625 -4.953125 L 2.65625 -4.765625 L 2.421875 -4.5 L 2.328125 -4.328125 L 2.1875 -3.984375 L 2.125 -3.609375 L 2.125 -3.03125 L 2.15625 -2.8125 L 2.203125 -2.640625 L 2.265625 -2.515625 L 2.328125 -2.328125 L 2.546875 -1.984375 L 2.8125 -1.75 L 3.15625 -1.578125 L 3.484375 -1.453125 L 3.765625 -1.421875 L 4.265625 -1.453125 L 4.59375 -1.625 L 4.734375 -1.6875 L 4.890625 -1.828125 L 5.109375 -2.0625 L 5.203125 -2.25 L 5.359375 -2.40625 L 5.578125 -2.515625 L 5.765625 -2.5 L 5.953125 -2.515625 L 6.140625 -2.484375 L 6.671875 -2.515625 L 6.859375 -2.40625 L 6.921875 -2.234375 L 6.671875 -1.515625 L 6.484375 -1.171875 L 6.265625 -0.875 L 6 -0.609375 L 5.53125 -0.28125 L 5.375 -0.203125 L 5.171875 -0.140625 L 5 -0.046875 L 4.4375 0.0625 L 3.78125 0.109375 Z M 3.296875 0.078125 "/></g></g></g><g fill="#2563eb" fill-opacity="1"><g transform="translate(90.648875, 284.409445)"><g><path d="M 3.796875 0.125 L 3.234375 0.09375 L 2.421875 -0.140625 L 2.25 -0.21875 L 1.609375 -0.5625 L 1.484375 -0.703125 L 1.21875 -0.953125 L 0.765625 -1.5625 L 0.671875 -1.734375 L 0.609375 -1.9375 L 0.46875 -2.25 L 0.375 -2.859375 L 0.40625 -3.953125 L 0.484375 -4.359375 L 0.65625 -4.890625 L 0.75 -5.046875 L 1.078125 -5.515625 L 1.328125 -5.796875 L 1.625 -6.015625 L 1.765625 -6.125 L 2.25 -6.4375 L 2.609375 -6.53125 L 2.78125 -6.59375 L 2.96875 -6.65625 L 3.15625 -6.703125 L 3.828125 -6.734375 L 4.265625 -6.71875 L 5.515625 -6.328125 L 6 -6.03125 L 6.40625 -5.65625 L 6.53125 -5.484375 L 6.640625 -5.375 L 6.765625 -5.21875 L 6.828125 -5.046875 L 7 -4.734375 L 7.046875 -4.515625 L 7.125 -4.3125 L 7.203125 -3.96875 L 7.25 -3.3125 L 7.203125 -2.640625 L 7.15625 -2.4375 L 7.109375 -2.28125 L 7.078125 -2.09375 L 7.015625 -1.921875 L 6.640625 -1.265625 L 6.515625 -1.09375 L 5.859375 -0.453125 L 5 -0.078125 L 4.640625 0.03125 Z M 3.53125 -1.546875 L 4.09375 -1.5625 L 4.265625 -1.609375 L 4.4375 -1.625 L 4.59375 -1.71875 L 4.765625 -1.796875 L 5.0625 -2.015625 L 5.171875 -2.1875 L 5.25 -2.328125 L 5.359375 -2.46875 L 5.4375 -2.859375 L 5.5 -3.34375 L 5.46875 -3.75 L 5.390625 -3.921875 L 5.34375 -4.109375 L 5.265625 -4.28125 L 5.046875 -4.59375 L 4.75 -4.8125 L 4.25 -5.03125 L 3.796875 -5.0625 L 3.359375 -5.03125 L 3.15625 -4.984375 L 2.984375 -4.890625 L 2.71875 -4.703125 L 2.5625 -4.578125 L 2.453125 -4.421875 L 2.359375 -4.265625 L 2.25 -4.140625 L 2.1875 -3.96875 L 2.125 -3.609375 L 2.109375 -3.328125 L 2.15625 -2.859375 L 2.34375 -2.328125 L 2.46875 -2.1875 L 2.5625 -2.0625 L 2.859375 -1.796875 L 3.171875 -1.625 L 3.34375 -1.609375 Z M 3.53125 -1.546875 "/></g></g></g><g fill="#2563eb" fill-opacity="1"><g transform="translate(99.391265, 284.409445)"><g><path d="M 5.59375 -0.15625 L 5.453125 -0.28125 L 5.203125 -0.5625 L 3.734375 -2.015625 L 3.578125 -2.125 L 3.453125 -2.265625 L 2.78125 -2.90625 L 2.65625 -3.078125 L 2.53125 -3.125 L 2.46875 -2.953125 L 2.453125 -2.765625 L 2.4375 -0.375 L 2.34375 -0.078125 L 2.15625 0.015625 L 1.953125 0.03125 L 1.578125 0 L 1.375 0.015625 L 0.984375 0 L 0.78125 -0.0625 L 0.703125 -0.25 L 0.6875 -1.046875 L 0.703125 -1.21875 L 0.6875 -2.78125 L 0.71875 -2.9375 L 0.6875 -3.328125 L 0.703125 -3.484375 L 0.703125 -6.359375 L 0.78125 -6.546875 L 1 -6.640625 L 1.296875 -6.578125 L 1.515625 -6.453125 L 1.65625 -6.34375 L 3.515625 -4.453125 L 3.78125 -4.25 L 4.453125 -3.578125 L 4.59375 -3.515625 L 4.65625 -3.671875 L 4.671875 -5.375 L 4.65625 -5.578125 L 4.6875 -5.96875 L 4.65625 -6.125 L 4.671875 -6.328125 L 4.765625 -6.53125 L 4.953125 -6.625 L 6.125 -6.640625 L 6.3125 -6.53125 L 6.40625 -6.34375 L 6.4375 -5.03125 L 6.40625 -4.796875 L 6.40625 -3.859375 L 6.4375 -3.703125 L 6.421875 -0.234375 L 6.328125 -0.046875 L 6.125 0.015625 L 5.859375 -0.015625 Z M 5.59375 -0.15625 "/></g></g></g><g fill="#2563eb" fill-opacity="1"><g transform="translate(107.67859, 284.409445)"><g><path d="M 5.59375 -0.15625 L 5.453125 -0.28125 L 5.203125 -0.5625 L 3.734375 -2.015625 L 3.578125 -2.125 L 3.453125 -2.265625 L 2.78125 -2.90625 L 2.65625 -3.078125 L 2.53125 -3.125 L 2.46875 -2.953125 L 2.453125 -2.765625 L 2.4375 -0.375 L 2.34375 -0.078125 L 2.15625 0.015625 L 1.953125 0.03125 L 1.578125 0 L 1.375 0.015625 L 0.984375 0 L 0.78125 -0.0625 L 0.703125 -0.25 L 0.6875 -1.046875 L 0.703125 -1.21875 L 0.6875 -2.78125 L 0.71875 -2.9375 L 0.6875 -3.328125 L 0.703125 -3.484375 L 0.703125 -6.359375 L 0.78125 -6.546875 L 1 -6.640625 L 1.296875 -6.578125 L 1.515625 -6.453125 L 1.65625 -6.34375 L 3.515625 -4.453125 L 3.78125 -4.25 L 4.453125 -3.578125 L 4.59375 -3.515625 L 4.65625 -3.671875 L 4.671875 -5.375 L 4.65625 -5.578125 L 4.6875 -5.96875 L 4.65625 -6.125 L 4.671875 -6.328125 L 4.765625 -6.53125 L 4.953125 -6.625 L 6.125 -6.640625 L 6.3125 -6.53125 L 6.40625 -6.34375 L 6.4375 -5.03125 L 6.40625 -4.796875 L 6.40625 -3.859375 L 6.4375 -3.703125 L 6.421875 -0.234375 L 6.328125 -0.046875 L 6.125 0.015625 L 5.859375 -0.015625 Z M 5.59375 -0.15625 "/></g></g></g><g fill="#2563eb" fill-opacity="1"><g transform="translate(115.965918, 284.409445)"><g><path d="M 3.296875 0.03125 L 3.109375 0.015625 L 2.921875 0.03125 L 2.703125 0.015625 L 2.515625 -0.015625 L 2.140625 0.015625 L 1.96875 0 L 1.75 0.015625 L 1.078125 0.015625 L 0.78125 -0.109375 L 0.71875 -0.375 L 0.6875 -0.578125 L 0.71875 -1.234375 L 0.6875 -1.421875 L 0.71875 -1.609375 L 0.71875 -3.140625 L 0.6875 -3.3125 L 0.703125 -4.09375 L 0.71875 -4.265625 L 0.6875 -4.46875 L 0.71875 -5.390625 L 0.6875 -5.609375 L 0.71875 -6 L 0.6875 -6.359375 L 0.796875 -6.546875 L 1 -6.625 L 1.1875 -6.625 L 1.375 -6.640625 L 1.546875 -6.625 L 1.71875 -6.65625 L 1.921875 -6.625 L 2.6875 -6.65625 L 2.890625 -6.625 L 3.046875 -6.640625 L 3.234375 -6.625 L 3.4375 -6.640625 L 4.21875 -6.65625 L 4.375 -6.609375 L 4.578125 -6.609375 L 4.765625 -6.53125 L 4.859375 -6.359375 L 4.875 -5.78125 L 4.859375 -5.59375 L 4.875 -5.40625 L 4.78125 -5.234375 L 4.578125 -5.125 L 4.40625 -5.109375 L 3.046875 -5.125 L 2.859375 -5.09375 L 2.6875 -5.109375 L 2.46875 -5.03125 L 2.390625 -4.84375 L 2.390625 -4.546875 L 2.46875 -4.265625 L 2.671875 -4.171875 L 3.21875 -4.1875 L 3.609375 -4.15625 L 3.8125 -4.1875 L 4.375 -4.1875 L 4.59375 -4.0625 L 4.6875 -3.796875 L 4.65625 -2.9375 L 4.59375 -2.75 L 4.40625 -2.671875 L 4.1875 -2.6875 L 4 -2.671875 L 3.609375 -2.671875 L 3.25 -2.65625 L 2.9375 -2.6875 L 2.65625 -2.671875 L 2.484375 -2.5625 L 2.40625 -2.375 L 2.40625 -1.78125 L 2.46875 -1.609375 L 2.671875 -1.515625 L 2.890625 -1.53125 L 3.0625 -1.5 L 3.265625 -1.515625 L 3.46875 -1.484375 L 3.78125 -1.53125 L 4.265625 -1.515625 L 4.4375 -1.484375 L 4.65625 -1.515625 L 4.859375 -1.421875 L 4.953125 -1.234375 L 4.953125 -0.28125 L 4.859375 -0.078125 L 4.65625 0.015625 Z M 3.296875 0.03125 "/></g></g></g><g fill="#2563eb" fill-opacity="1"><g transform="translate(122.537272, 284.409445)"><g><path d="M 3.296875 0.078125 L 3.125 0.0625 L 2.953125 0.03125 L 2.765625 -0.03125 L 2.59375 -0.078125 L 2.15625 -0.25 L 1.75 -0.46875 L 1.328125 -0.84375 L 0.9375 -1.265625 L 0.53125 -2.09375 L 0.390625 -2.625 L 0.34375 -3.3125 L 0.4375 -4.140625 L 0.53125 -4.53125 L 0.765625 -5.0625 L 0.953125 -5.328125 L 1.203125 -5.65625 L 1.609375 -6.015625 L 1.890625 -6.234375 L 2.59375 -6.5625 L 3.515625 -6.75 L 4.09375 -6.734375 L 4.28125 -6.703125 L 4.46875 -6.703125 L 5.375 -6.390625 L 6.015625 -5.984375 L 6.28125 -5.703125 L 6.390625 -5.53125 L 6.53125 -5.375 L 6.609375 -5.21875 L 6.71875 -5.0625 L 6.765625 -4.859375 L 6.84375 -4.6875 L 6.890625 -4.484375 L 6.828125 -4.296875 L 6.671875 -4.21875 L 6.390625 -4.1875 L 6.125 -4.21875 L 5.734375 -4.21875 L 5.5625 -4.203125 L 5.34375 -4.3125 L 5.15625 -4.484375 L 5.0625 -4.625 L 4.78125 -4.90625 L 4.640625 -5 L 4.484375 -5.078125 L 4.1875 -5.15625 L 3.78125 -5.171875 L 3.140625 -5.09375 L 2.890625 -4.953125 L 2.65625 -4.765625 L 2.421875 -4.5 L 2.328125 -4.328125 L 2.1875 -3.984375 L 2.125 -3.609375 L 2.125 -3.03125 L 2.15625 -2.8125 L 2.203125 -2.640625 L 2.265625 -2.515625 L 2.328125 -2.328125 L 2.546875 -1.984375 L 2.8125 -1.75 L 3.15625 -1.578125 L 3.484375 -1.453125 L 3.765625 -1.421875 L 4.265625 -1.453125 L 4.59375 -1.625 L 4.734375 -1.6875 L 4.890625 -1.828125 L 5.109375 -2.0625 L 5.203125 -2.25 L 5.359375 -2.40625 L 5.578125 -2.515625 L 5.765625 -2.5 L 5.953125 -2.515625 L 6.140625 -2.484375 L 6.671875 -2.515625 L 6.859375 -2.40625 L 6.921875 -2.234375 L 6.671875 -1.515625 L 6.484375 -1.171875 L 6.265625 -0.875 L 6 -0.609375 L 5.53125 -0.28125 L 5.375 -0.203125 L 5.171875 -0.140625 L 5 -0.046875 L 4.4375 0.0625 L 3.78125 0.109375 Z M 3.296875 0.078125 "/></g></g></g><g fill="#2563eb" fill-opacity="1"><g transform="translate(130.909924, 284.409445)"><g><path d="M 2.46875 0.015625 L 2.1875 0.015625 L 1.90625 -0.078125 L 1.78125 -0.296875 L 1.796875 -0.46875 L 1.8125 -1.03125 L 1.796875 -1.21875 L 1.796875 -1.984375 L 1.828125 -2.1875 L 1.796875 -3.59375 L 1.8125 -3.859375 L 1.796875 -4.046875 L 1.8125 -4.265625 L 1.796875 -4.53125 L 1.8125 -4.828125 L 1.703125 -5.015625 L 1.53125 -5.109375 L 0.625 -5.125 L 0.4375 -5.109375 L 0.265625 -5.203125 L 0.1875 -5.375 L 0.15625 -5.671875 L 0.1875 -6.140625 L 0.171875 -6.328125 L 0.28125 -6.546875 L 0.46875 -6.65625 L 1.125 -6.609375 L 1.421875 -6.640625 L 1.984375 -6.609375 L 2.15625 -6.65625 L 2.359375 -6.625 L 2.5625 -6.65625 L 2.734375 -6.65625 L 2.9375 -6.609375 L 3.703125 -6.65625 L 3.875 -6.625 L 4.078125 -6.65625 L 4.265625 -6.640625 L 4.84375 -6.640625 L 5.03125 -6.515625 L 5.125 -6.328125 L 5.125 -5.421875 L 5 -5.21875 L 4.84375 -5.109375 L 4.671875 -5.125 L 4.484375 -5.09375 L 4.125 -5.140625 L 3.75 -5.125 L 3.578125 -5 L 3.5 -4.71875 L 3.46875 -3.890625 L 3.5 -3.703125 L 3.484375 -2.171875 L 3.515625 -1.96875 L 3.484375 -1.796875 L 3.5 -1.40625 L 3.484375 -1.21875 L 3.515625 -0.859375 L 3.484375 -0.359375 L 3.390625 -0.09375 L 3.109375 0 Z M 2.46875 0.015625 "/></g></g></g><g fill="#2563eb" fill-opacity="1"><g transform="translate(137.348547, 284.409445)"><g><path d="M 3.171875 0.03125 L 2.984375 -0.015625 L 2.515625 -0.015625 L 2.234375 0.03125 L 1.859375 -0.015625 L 1.671875 0.015625 L 1.375 0.015625 L 1.09375 -0.015625 L 0.921875 0 L 0.734375 0 L 0.546875 -0.078125 L 0.453125 -0.34375 L 0.484375 -1.21875 L 0.59375 -1.390625 L 1.21875 -1.578125 L 1.3125 -1.859375 L 1.296875 -4.765625 L 1.203125 -5.03125 L 1.03125 -5.140625 L 0.828125 -5.140625 L 0.625 -5.25 L 0.515625 -5.4375 L 0.546875 -5.609375 L 0.515625 -6.3125 L 0.609375 -6.546875 L 0.796875 -6.640625 L 1.015625 -6.640625 L 1.1875 -6.609375 L 1.96875 -6.609375 L 2.15625 -6.65625 L 2.328125 -6.625 L 3.484375 -6.625 L 3.65625 -6.53125 L 3.765625 -6.34375 L 3.75 -5.40625 L 3.65625 -5.25 L 3.46875 -5.171875 L 3.265625 -5.15625 L 3.0625 -5.0625 L 3 -4.84375 L 2.953125 -3.890625 L 3 -3.203125 L 2.984375 -3 L 2.984375 -1.953125 L 2.953125 -1.78125 L 3.078125 -1.5625 L 3.296875 -1.484375 L 3.5 -1.484375 L 3.703125 -1.375 L 3.828125 -1.1875 L 3.828125 -0.25 L 3.734375 -0.078125 L 3.5625 0.015625 Z M 3.171875 0.03125 "/></g></g></g><g fill="#2563eb" fill-opacity="1"><g transform="translate(142.791717, 284.409445)"><g><path d="M 5.59375 -0.15625 L 5.453125 -0.28125 L 5.203125 -0.5625 L 3.734375 -2.015625 L 3.578125 -2.125 L 3.453125 -2.265625 L 2.78125 -2.90625 L 2.65625 -3.078125 L 2.53125 -3.125 L 2.46875 -2.953125 L 2.453125 -2.765625 L 2.4375 -0.375 L 2.34375 -0.078125 L 2.15625 0.015625 L 1.953125 0.03125 L 1.578125 0 L 1.375 0.015625 L 0.984375 0 L 0.78125 -0.0625 L 0.703125 -0.25 L 0.6875 -1.046875 L 0.703125 -1.21875 L 0.6875 -2.78125 L 0.71875 -2.9375 L 0.6875 -3.328125 L 0.703125 -3.484375 L 0.703125 -6.359375 L 0.78125 -6.546875 L 1 -6.640625 L 1.296875 -6.578125 L 1.515625 -6.453125 L 1.65625 -6.34375 L 3.515625 -4.453125 L 3.78125 -4.25 L 4.453125 -3.578125 L 4.59375 -3.515625 L 4.65625 -3.671875 L 4.671875 -5.375 L 4.65625 -5.578125 L 4.6875 -5.96875 L 4.65625 -6.125 L 4.671875 -6.328125 L 4.765625 -6.53125 L 4.953125 -6.625 L 6.125 -6.640625 L 6.3125 -6.53125 L 6.40625 -6.34375 L 6.4375 -5.03125 L 6.40625 -4.796875 L 6.40625 -3.859375 L 6.4375 -3.703125 L 6.421875 -0.234375 L 6.328125 -0.046875 L 6.125 0.015625 L 5.859375 -0.015625 Z M 5.59375 -0.15625 "/></g></g></g><g fill="#2563eb" fill-opacity="1"><g transform="translate(151.079041, 284.409445)"><g><path d="M 3.296875 0.09375 L 3.09375 0.03125 L 2.5625 -0.0625 L 2.40625 -0.109375 L 1.75 -0.484375 L 1.4375 -0.703125 L 1.046875 -1.09375 L 0.828125 -1.421875 L 0.65625 -1.75 L 0.390625 -2.640625 L 0.34375 -3.296875 L 0.359375 -3.609375 L 0.53125 -4.546875 L 0.875 -5.25 L 0.984375 -5.390625 L 1.125 -5.53125 L 1.25 -5.6875 L 1.671875 -6.0625 L 2.1875 -6.390625 L 2.921875 -6.65625 L 3.09375 -6.65625 L 3.265625 -6.71875 L 3.453125 -6.71875 L 4.328125 -6.6875 L 4.78125 -6.5625 L 4.984375 -6.53125 L 5.640625 -6.171875 L 5.78125 -6.0625 L 5.9375 -5.921875 L 6.140625 -5.75 L 6.53125 -5.203125 L 6.609375 -5.03125 L 6.75 -4.640625 L 6.6875 -4.484375 L 6.453125 -4.375 L 6 -4.40625 L 5.703125 -4.359375 L 5.421875 -4.375 L 5.1875 -4.4375 L 4.984375 -4.59375 L 4.859375 -4.765625 L 4.75 -4.890625 L 4.578125 -5 L 4.390625 -5.078125 L 4.046875 -5.171875 L 3.46875 -5.15625 L 3.296875 -5.078125 L 3.125 -5.0625 L 2.953125 -4.984375 L 2.625 -4.734375 L 2.328125 -4.296875 L 2.1875 -3.953125 L 2.109375 -3.578125 L 2.125 -3.03125 L 2.171875 -2.734375 L 2.25 -2.453125 L 2.421875 -2.109375 L 2.53125 -1.984375 L 2.8125 -1.71875 L 3.328125 -1.515625 L 3.8125 -1.453125 L 4.0625 -1.453125 L 4.421875 -1.546875 L 4.734375 -1.671875 L 4.875 -1.78125 L 5.015625 -1.9375 L 5.109375 -2.09375 L 5.078125 -2.25 L 4.9375 -2.328125 L 4.765625 -2.359375 L 4.296875 -2.3125 L 4.015625 -2.328125 L 3.84375 -2.4375 L 3.765625 -2.59375 L 3.765625 -3.484375 L 3.84375 -3.671875 L 4.046875 -3.765625 L 4.40625 -3.796875 L 4.96875 -3.75 L 6.25 -3.78125 L 6.453125 -3.75 L 6.65625 -3.75 L 6.828125 -3.65625 L 6.921875 -3.484375 L 6.9375 -3.125 L 6.921875 -2.953125 L 6.921875 -2.765625 L 6.890625 -2.59375 L 6.875 -2.421875 L 6.796875 -2.0625 L 6.609375 -1.515625 L 6.5 -1.375 L 6.40625 -1.203125 L 6.3125 -1.046875 L 6.203125 -0.90625 L 6.0625 -0.796875 L 5.921875 -0.640625 L 5.625 -0.421875 L 4.953125 -0.078125 L 4.234375 0.09375 Z M 3.296875 0.09375 "/></g></g></g><g fill="#2563eb" fill-opacity="1"><g transform="translate(159.480131, 284.409445)"><g/></g></g><g fill="#2563eb" fill-opacity="1"><g transform="translate(163.188354, 284.409445)"><g><path d="M 2.171875 -0.28125 L 2.1875 -0.640625 L 2.15625 -0.828125 L 2.1875 -1.5625 L 2.15625 -1.75 L 2.171875 -2.5 L 2.125 -2.75 L 2.03125 -3.015625 L 1.296875 -4.171875 L 1.21875 -4.34375 L 1 -4.640625 L 0.609375 -5.328125 L 0.5 -5.453125 L 0.09375 -6.125 L 0 -6.34375 L 0.03125 -6.546875 L 0.21875 -6.65625 L 0.65625 -6.625 L 1.140625 -6.65625 L 1.296875 -6.625 L 1.5 -6.625 L 1.71875 -6.546875 L 1.921875 -6.359375 L 2.359375 -5.53125 L 2.46875 -5.375 L 2.75 -4.84375 L 2.859375 -4.6875 L 2.953125 -4.5 L 3.0625 -4.5 L 3.1875 -4.671875 L 3.34375 -5.03125 L 3.4375 -5.1875 L 3.53125 -5.390625 L 3.75 -5.6875 L 3.859375 -5.96875 L 4.109375 -6.390625 L 4.28125 -6.546875 L 4.53125 -6.640625 L 4.6875 -6.625 L 5.0625 -6.640625 L 5.25 -6.609375 L 5.453125 -6.625 L 5.828125 -6.625 L 6 -6.578125 L 6.03125 -6.375 L 5.921875 -6.140625 L 5.328125 -5.125 L 5.203125 -5 L 4 -3.015625 L 3.90625 -2.765625 L 3.84375 -2.5 L 3.859375 -1.9375 L 3.828125 -1.78125 L 3.828125 -1.578125 L 3.84375 -1.390625 L 3.828125 -0.296875 L 3.75 -0.09375 L 3.5625 0.015625 L 3.359375 -0.015625 L 3.09375 0.015625 L 2.8125 -0.015625 L 2.640625 0.015625 L 2.453125 0 L 2.25 -0.078125 Z M 2.171875 -0.28125 "/></g></g></g><g fill="#2563eb" fill-opacity="1"><g transform="translate(170.356973, 284.409445)"><g><path d="M 3.796875 0.125 L 3.234375 0.09375 L 2.421875 -0.140625 L 2.25 -0.21875 L 1.609375 -0.5625 L 1.484375 -0.703125 L 1.21875 -0.953125 L 0.765625 -1.5625 L 0.671875 -1.734375 L 0.609375 -1.9375 L 0.46875 -2.25 L 0.375 -2.859375 L 0.40625 -3.953125 L 0.484375 -4.359375 L 0.65625 -4.890625 L 0.75 -5.046875 L 1.078125 -5.515625 L 1.328125 -5.796875 L 1.625 -6.015625 L 1.765625 -6.125 L 2.25 -6.4375 L 2.609375 -6.53125 L 2.78125 -6.59375 L 2.96875 -6.65625 L 3.15625 -6.703125 L 3.828125 -6.734375 L 4.265625 -6.71875 L 5.515625 -6.328125 L 6 -6.03125 L 6.40625 -5.65625 L 6.53125 -5.484375 L 6.640625 -5.375 L 6.765625 -5.21875 L 6.828125 -5.046875 L 7 -4.734375 L 7.046875 -4.515625 L 7.125 -4.3125 L 7.203125 -3.96875 L 7.25 -3.3125 L 7.203125 -2.640625 L 7.15625 -2.4375 L 7.109375 -2.28125 L 7.078125 -2.09375 L 7.015625 -1.921875 L 6.640625 -1.265625 L 6.515625 -1.09375 L 5.859375 -0.453125 L 5 -0.078125 L 4.640625 0.03125 Z M 3.53125 -1.546875 L 4.09375 -1.5625 L 4.265625 -1.609375 L 4.4375 -1.625 L 4.59375 -1.71875 L 4.765625 -1.796875 L 5.0625 -2.015625 L 5.171875 -2.1875 L 5.25 -2.328125 L 5.359375 -2.46875 L 5.4375 -2.859375 L 5.5 -3.34375 L 5.46875 -3.75 L 5.390625 -3.921875 L 5.34375 -4.109375 L 5.265625 -4.28125 L 5.046875 -4.59375 L 4.75 -4.8125 L 4.25 -5.03125 L 3.796875 -5.0625 L 3.359375 -5.03125 L 3.15625 -4.984375 L 2.984375 -4.890625 L 2.71875 -4.703125 L 2.5625 -4.578125 L 2.453125 -4.421875 L 2.359375 -4.265625 L 2.25 -4.140625 L 2.1875 -3.96875 L 2.125 -3.609375 L 2.109375 -3.328125 L 2.15625 -2.859375 L 2.34375 -2.328125 L 2.46875 -2.1875 L 2.5625 -2.0625 L 2.859375 -1.796875 L 3.171875 -1.625 L 3.34375 -1.609375 Z M 3.53125 -1.546875 "/></g></g></g><g fill="#2563eb" fill-opacity="1"><g transform="translate(179.099366, 284.409445)"><g><path d="M 3.265625 0.125 L 2.953125 0.109375 L 2.765625 0.109375 L 2.40625 0.03125 L 2.046875 -0.125 L 1.890625 -0.21875 L 1.703125 -0.296875 L 1.40625 -0.5 L 1.265625 -0.625 L 1.140625 -0.765625 L 0.921875 -1.09375 L 0.78125 -1.421875 L 0.6875 -1.8125 L 0.625 -2.5625 L 0.65625 -4.09375 L 0.640625 -4.28125 L 0.65625 -4.46875 L 0.640625 -5.796875 L 0.65625 -5.953125 L 0.65625 -6.171875 L 0.640625 -6.359375 L 0.765625 -6.546875 L 0.953125 -6.625 L 1.15625 -6.65625 L 1.5625 -6.609375 L 1.75 -6.640625 L 1.9375 -6.640625 L 2.140625 -6.546875 L 2.25 -6.34375 L 2.265625 -6.0625 L 2.25 -5.765625 L 2.265625 -5.625 L 2.234375 -2.5625 L 2.296875 -2.015625 L 2.359375 -1.84375 L 2.46875 -1.6875 L 2.625 -1.578125 L 2.78125 -1.484375 L 3 -1.4375 L 3.5625 -1.4375 L 3.890625 -1.5625 L 4.0625 -1.671875 L 4.15625 -1.859375 L 4.21875 -2 L 4.28125 -2.59375 L 4.265625 -6.328125 L 4.375 -6.53125 L 4.578125 -6.625 L 4.96875 -6.59375 L 5.5625 -6.625 L 5.78125 -6.546875 L 5.90625 -6.359375 L 5.875 -6.171875 L 5.875 -5.375 L 5.890625 -5.21875 L 5.875 -5.015625 L 5.890625 -4.84375 L 5.890625 -2.28125 L 5.84375 -1.828125 L 5.75 -1.421875 L 5.65625 -1.265625 L 5.609375 -1.078125 L 5.390625 -0.734375 L 5.125 -0.46875 L 4.8125 -0.265625 L 4.46875 -0.078125 L 3.734375 0.109375 L 3.546875 0.09375 Z M 3.265625 0.125 "/></g></g></g><g fill="#2563eb" fill-opacity="1"><g transform="translate(186.779942, 284.409445)"><g/></g></g><g fill="#2563eb" fill-opacity="1"><g transform="translate(190.488171, 284.409445)"><g><path d="M 2.46875 0.015625 L 2.1875 0.015625 L 1.90625 -0.078125 L 1.78125 -0.296875 L 1.796875 -0.46875 L 1.8125 -1.03125 L 1.796875 -1.21875 L 1.796875 -1.984375 L 1.828125 -2.1875 L 1.796875 -3.59375 L 1.8125 -3.859375 L 1.796875 -4.046875 L 1.8125 -4.265625 L 1.796875 -4.53125 L 1.8125 -4.828125 L 1.703125 -5.015625 L 1.53125 -5.109375 L 0.625 -5.125 L 0.4375 -5.109375 L 0.265625 -5.203125 L 0.1875 -5.375 L 0.15625 -5.671875 L 0.1875 -6.140625 L 0.171875 -6.328125 L 0.28125 -6.546875 L 0.46875 -6.65625 L 1.125 -6.609375 L 1.421875 -6.640625 L 1.984375 -6.609375 L 2.15625 -6.65625 L 2.359375 -6.625 L 2.5625 -6.65625 L 2.734375 -6.65625 L 2.9375 -6.609375 L 3.703125 -6.65625 L 3.875 -6.625 L 4.078125 -6.65625 L 4.265625 -6.640625 L 4.84375 -6.640625 L 5.03125 -6.515625 L 5.125 -6.328125 L 5.125 -5.421875 L 5 -5.21875 L 4.84375 -5.109375 L 4.671875 -5.125 L 4.484375 -5.09375 L 4.125 -5.140625 L 3.75 -5.125 L 3.578125 -5 L 3.5 -4.71875 L 3.46875 -3.890625 L 3.5 -3.703125 L 3.484375 -2.171875 L 3.515625 -1.96875 L 3.484375 -1.796875 L 3.5 -1.40625 L 3.484375 -1.21875 L 3.515625 -0.859375 L 3.484375 -0.359375 L 3.390625 -0.09375 L 3.109375 0 Z M 2.46875 0.015625 "/></g></g></g><g fill="#2563eb" fill-opacity="1"><g transform="translate(196.926799, 284.409445)"><g><path d="M 3.796875 0.125 L 3.234375 0.09375 L 2.421875 -0.140625 L 2.25 -0.21875 L 1.609375 -0.5625 L 1.484375 -0.703125 L 1.21875 -0.953125 L 0.765625 -1.5625 L 0.671875 -1.734375 L 0.609375 -1.9375 L 0.46875 -2.25 L 0.375 -2.859375 L 0.40625 -3.953125 L 0.484375 -4.359375 L 0.65625 -4.890625 L 0.75 -5.046875 L 1.078125 -5.515625 L 1.328125 -5.796875 L 1.625 -6.015625 L 1.765625 -6.125 L 2.25 -6.4375 L 2.609375 -6.53125 L 2.78125 -6.59375 L 2.96875 -6.65625 L 3.15625 -6.703125 L 3.828125 -6.734375 L 4.265625 -6.71875 L 5.515625 -6.328125 L 6 -6.03125 L 6.40625 -5.65625 L 6.53125 -5.484375 L 6.640625 -5.375 L 6.765625 -5.21875 L 6.828125 -5.046875 L 7 -4.734375 L 7.046875 -4.515625 L 7.125 -4.3125 L 7.203125 -3.96875 L 7.25 -3.3125 L 7.203125 -2.640625 L 7.15625 -2.4375 L 7.109375 -2.28125 L 7.078125 -2.09375 L 7.015625 -1.921875 L 6.640625 -1.265625 L 6.515625 -1.09375 L 5.859375 -0.453125 L 5 -0.078125 L 4.640625 0.03125 Z M 3.53125 -1.546875 L 4.09375 -1.5625 L 4.265625 -1.609375 L 4.4375 -1.625 L 4.59375 -1.71875 L 4.765625 -1.796875 L 5.0625 -2.015625 L 5.171875 -2.1875 L 5.25 -2.328125 L 5.359375 -2.46875 L 5.4375 -2.859375 L 5.5 -3.34375 L 5.46875 -3.75 L 5.390625 -3.921875 L 5.34375 -4.109375 L 5.265625 -4.28125 L 5.046875 -4.59375 L 4.75 -4.8125 L 4.25 -5.03125 L 3.796875 -5.0625 L 3.359375 -5.03125 L 3.15625 -4.984375 L 2.984375 -4.890625 L 2.71875 -4.703125 L 2.5625 -4.578125 L 2.453125 -4.421875 L 2.359375 -4.265625 L 2.25 -4.140625 L 2.1875 -3.96875 L 2.125 -3.609375 L 2.109375 -3.328125 L 2.15625 -2.859375 L 2.34375 -2.328125 L 2.46875 -2.1875 L 2.5625 -2.0625 L 2.859375 -1.796875 L 3.171875 -1.625 L 3.34375 -1.609375 Z M 3.53125 -1.546875 "/></g></g></g><g fill="#2563eb" fill-opacity="1"><g transform="translate(205.669192, 284.409445)"><g/></g></g><g fill="#2563eb" fill-opacity="1"><g transform="translate(209.377421, 284.409445)"><g><path d="M 2.46875 0.015625 L 2.1875 0.015625 L 1.90625 -0.078125 L 1.78125 -0.296875 L 1.796875 -0.46875 L 1.8125 -1.03125 L 1.796875 -1.21875 L 1.796875 -1.984375 L 1.828125 -2.1875 L 1.796875 -3.59375 L 1.8125 -3.859375 L 1.796875 -4.046875 L 1.8125 -4.265625 L 1.796875 -4.53125 L 1.8125 -4.828125 L 1.703125 -5.015625 L 1.53125 -5.109375 L 0.625 -5.125 L 0.4375 -5.109375 L 0.265625 -5.203125 L 0.1875 -5.375 L 0.15625 -5.671875 L 0.1875 -6.140625 L 0.171875 -6.328125 L 0.28125 -6.546875 L 0.46875 -6.65625 L 1.125 -6.609375 L 1.421875 -6.640625 L 1.984375 -6.609375 L 2.15625 -6.65625 L 2.359375 -6.625 L 2.5625 -6.65625 L 2.734375 -6.65625 L 2.9375 -6.609375 L 3.703125 -6.65625 L 3.875 -6.625 L 4.078125 -6.65625 L 4.265625 -6.640625 L 4.84375 -6.640625 L 5.03125 -6.515625 L 5.125 -6.328125 L 5.125 -5.421875 L 5 -5.21875 L 4.84375 -5.109375 L 4.671875 -5.125 L 4.484375 -5.09375 L 4.125 -5.140625 L 3.75 -5.125 L 3.578125 -5 L 3.5 -4.71875 L 3.46875 -3.890625 L 3.5 -3.703125 L 3.484375 -2.171875 L 3.515625 -1.96875 L 3.484375 -1.796875 L 3.5 -1.40625 L 3.484375 -1.21875 L 3.515625 -0.859375 L 3.484375 -0.359375 L 3.390625 -0.09375 L 3.109375 0 Z M 2.46875 0.015625 "/></g></g></g><g fill="#2563eb" fill-opacity="1"><g transform="translate(215.81605, 284.409445)"><g><path d="M 0.71875 -0.390625 L 0.71875 -1.796875 L 0.6875 -1.984375 L 0.703125 -2.75 L 0.71875 -2.9375 L 0.703125 -3.109375 L 0.703125 -3.296875 L 0.6875 -3.515625 L 0.71875 -3.890625 L 0.703125 -4.078125 L 0.6875 -6.25 L 0.8125 -6.515625 L 0.984375 -6.609375 L 1.53125 -6.65625 L 1.75 -6.65625 L 1.9375 -6.609375 L 2.125 -6.609375 L 2.296875 -6.65625 L 2.484375 -6.65625 L 2.671875 -6.625 L 3.25 -6.625 L 3.515625 -6.640625 L 3.828125 -6.625 L 4.359375 -6.5 L 4.71875 -6.390625 L 5.0625 -6.203125 L 5.59375 -5.640625 L 5.703125 -5.484375 L 5.78125 -5.328125 L 5.953125 -4.78125 L 5.96875 -4.59375 L 6 -4 L 5.875 -3.4375 L 5.5 -2.78125 L 5.375 -2.671875 L 5.234375 -2.515625 L 5.15625 -2.3125 L 5.15625 -2.09375 L 5.265625 -1.9375 L 5.578125 -1.453125 L 5.65625 -1.28125 L 5.984375 -0.796875 L 6.0625 -0.609375 L 6.171875 -0.484375 L 6.28125 -0.28125 L 6.21875 -0.0625 L 6.046875 0.015625 L 5.734375 0.03125 L 5.546875 0.015625 L 4.796875 0.015625 L 4.484375 -0.0625 L 4.265625 -0.234375 L 4.15625 -0.390625 L 4.09375 -0.59375 L 3.984375 -0.734375 L 3.796875 -1.078125 L 3.609375 -1.359375 L 3.53125 -1.53125 L 3.421875 -1.71875 L 3.21875 -1.875 L 2.671875 -1.953125 L 2.5 -1.84375 L 2.40625 -1.65625 L 2.390625 -1.046875 L 2.421875 -0.859375 L 2.40625 -0.6875 L 2.40625 -0.359375 L 2.3125 -0.078125 L 2.015625 0.015625 L 1.71875 0.015625 L 1.578125 0.03125 L 1.265625 0 L 1.078125 0.03125 L 0.8125 -0.09375 Z M 2.671875 -3.46875 L 2.890625 -3.484375 L 3.34375 -3.46875 L 3.515625 -3.484375 L 3.796875 -3.546875 L 3.96875 -3.625 L 4.0625 -3.703125 L 4.171875 -3.84375 L 4.265625 -4.046875 L 4.28125 -4.328125 L 4.25 -4.578125 L 4.1875 -4.71875 L 3.953125 -5.015625 L 3.78125 -5.0625 L 3.53125 -5.078125 L 3.265625 -5.140625 L 2.890625 -5.109375 L 2.6875 -5.109375 L 2.5 -5.03125 L 2.40625 -4.859375 L 2.390625 -4.453125 L 2.40625 -4.296875 L 2.40625 -3.734375 L 2.484375 -3.578125 Z M 2.671875 -3.46875 "/></g></g></g><g fill="#2563eb" fill-opacity="1"><g transform="translate(223.534551, 284.409445)"><g><path d="M 3.265625 0.125 L 2.953125 0.109375 L 2.765625 0.109375 L 2.40625 0.03125 L 2.046875 -0.125 L 1.890625 -0.21875 L 1.703125 -0.296875 L 1.40625 -0.5 L 1.265625 -0.625 L 1.140625 -0.765625 L 0.921875 -1.09375 L 0.78125 -1.421875 L 0.6875 -1.8125 L 0.625 -2.5625 L 0.65625 -4.09375 L 0.640625 -4.28125 L 0.65625 -4.46875 L 0.640625 -5.796875 L 0.65625 -5.953125 L 0.65625 -6.171875 L 0.640625 -6.359375 L 0.765625 -6.546875 L 0.953125 -6.625 L 1.15625 -6.65625 L 1.5625 -6.609375 L 1.75 -6.640625 L 1.9375 -6.640625 L 2.140625 -6.546875 L 2.25 -6.34375 L 2.265625 -6.0625 L 2.25 -5.765625 L 2.265625 -5.625 L 2.234375 -2.5625 L 2.296875 -2.015625 L 2.359375 -1.84375 L 2.46875 -1.6875 L 2.625 -1.578125 L 2.78125 -1.484375 L 3 -1.4375 L 3.5625 -1.4375 L 3.890625 -1.5625 L 4.0625 -1.671875 L 4.15625 -1.859375 L 4.21875 -2 L 4.28125 -2.59375 L 4.265625 -6.328125 L 4.375 -6.53125 L 4.578125 -6.625 L 4.96875 -6.59375 L 5.5625 -6.625 L 5.78125 -6.546875 L 5.90625 -6.359375 L 5.875 -6.171875 L 5.875 -5.375 L 5.890625 -5.21875 L 5.875 -5.015625 L 5.890625 -4.84375 L 5.890625 -2.28125 L 5.84375 -1.828125 L 5.75 -1.421875 L 5.65625 -1.265625 L 5.609375 -1.078125 L 5.390625 -0.734375 L 5.125 -0.46875 L 4.8125 -0.265625 L 4.46875 -0.078125 L 3.734375 0.109375 L 3.546875 0.09375 Z M 3.265625 0.125 "/></g></g></g><g fill="#2563eb" fill-opacity="1"><g transform="translate(231.215127, 284.409445)"><g><path d="M 2.546875 0.078125 L 2.15625 0.015625 L 1.796875 -0.109375 L 1.609375 -0.171875 L 1.421875 -0.25 L 1.296875 -0.390625 L 0.953125 -0.609375 L 0.828125 -0.75 L 0.703125 -0.875 L 0.515625 -1.21875 L 0.46875 -1.390625 L 0.421875 -1.578125 L 0.390625 -1.78125 L 0.46875 -1.96875 L 0.640625 -2.046875 L 1.375 -2.09375 L 1.5625 -2.0625 L 1.71875 -2.078125 L 1.921875 -2 L 2.234375 -1.65625 L 2.546875 -1.46875 L 3.03125 -1.421875 L 3.203125 -1.453125 L 3.5 -1.46875 L 3.828125 -1.609375 L 3.953125 -1.75 L 4.015625 -1.984375 L 3.96875 -2.234375 L 3.84375 -2.34375 L 3.5 -2.5 L 2.015625 -2.671875 L 1.671875 -2.78125 L 1.03125 -3.140625 L 0.671875 -3.578125 L 0.515625 -3.90625 L 0.453125 -4.28125 L 0.453125 -4.578125 L 0.46875 -5.046875 L 0.640625 -5.5625 L 0.984375 -6.015625 L 1.4375 -6.328125 L 1.75 -6.515625 L 2.109375 -6.625 L 2.28125 -6.65625 L 2.46875 -6.671875 L 2.6875 -6.71875 L 3.421875 -6.703125 L 3.78125 -6.625 L 4.3125 -6.453125 L 4.9375 -6.015625 L 5.15625 -5.734375 L 5.421875 -5.234375 L 5.4375 -5.0625 L 5.46875 -4.875 L 5.390625 -4.71875 L 5.21875 -4.578125 L 5.046875 -4.59375 L 4.859375 -4.59375 L 4.59375 -4.625 L 4.15625 -4.578125 L 3.953125 -4.703125 L 3.796875 -4.890625 L 3.640625 -5.03125 L 3.46875 -5.140625 L 3.296875 -5.1875 L 3 -5.21875 L 2.6875 -5.21875 L 2.515625 -5.171875 L 2.375 -5.09375 L 2.234375 -4.984375 L 2.109375 -4.859375 L 2.0625 -4.609375 L 2.109375 -4.328125 L 2.25 -4.1875 L 2.59375 -4.015625 L 3.09375 -3.921875 L 3.375 -3.921875 L 3.578125 -3.875 L 3.765625 -3.875 L 3.953125 -3.84375 L 4.6875 -3.609375 L 4.859375 -3.515625 L 5.015625 -3.4375 L 5.1875 -3.28125 L 5.4375 -3 L 5.53125 -2.84375 L 5.6875 -2.296875 L 5.703125 -1.984375 L 5.640625 -1.515625 L 5.59375 -1.359375 L 5.53125 -1.1875 L 5.421875 -0.984375 L 5.328125 -0.84375 L 5.0625 -0.5625 L 4.40625 -0.171875 L 4.234375 -0.078125 L 4.0625 -0.0625 L 3.875 0.015625 L 3.6875 0.03125 L 3.484375 0.078125 L 3.296875 0.109375 Z M 2.546875 0.078125 "/></g></g></g><g fill="#2563eb" fill-opacity="1"><g transform="translate(238.402715, 284.409445)"><g><path d="M 2.46875 0.015625 L 2.1875 0.015625 L 1.90625 -0.078125 L 1.78125 -0.296875 L 1.796875 -0.46875 L 1.8125 -1.03125 L 1.796875 -1.21875 L 1.796875 -1.984375 L 1.828125 -2.1875 L 1.796875 -3.59375 L 1.8125 -3.859375 L 1.796875 -4.046875 L 1.8125 -4.265625 L 1.796875 -4.53125 L 1.8125 -4.828125 L 1.703125 -5.015625 L 1.53125 -5.109375 L 0.625 -5.125 L 0.4375 -5.109375 L 0.265625 -5.203125 L 0.1875 -5.375 L 0.15625 -5.671875 L 0.1875 -6.140625 L 0.171875 -6.328125 L 0.28125 -6.546875 L 0.46875 -6.65625 L 1.125 -6.609375 L 1.421875 -6.640625 L 1.984375 -6.609375 L 2.15625 -6.65625 L 2.359375 -6.625 L 2.5625 -6.65625 L 2.734375 -6.65625 L 2.9375 -6.609375 L 3.703125 -6.65625 L 3.875 -6.625 L 4.078125 -6.65625 L 4.265625 -6.640625 L 4.84375 -6.640625 L 5.03125 -6.515625 L 5.125 -6.328125 L 5.125 -5.421875 L 5 -5.21875 L 4.84375 -5.109375 L 4.671875 -5.125 L 4.484375 -5.09375 L 4.125 -5.140625 L 3.75 -5.125 L 3.578125 -5 L 3.5 -4.71875 L 3.46875 -3.890625 L 3.5 -3.703125 L 3.484375 -2.171875 L 3.515625 -1.96875 L 3.484375 -1.796875 L 3.5 -1.40625 L 3.484375 -1.21875 L 3.515625 -0.859375 L 3.484375 -0.359375 L 3.390625 -0.09375 L 3.109375 0 Z M 2.46875 0.015625 "/></g></g></g><g fill="#2563eb" fill-opacity="1"><g transform="translate(244.841343, 284.409445)"><g><path d="M 3.296875 0.03125 L 3.109375 0.015625 L 2.921875 0.03125 L 2.703125 0.015625 L 2.515625 -0.015625 L 2.140625 0.015625 L 1.96875 0 L 1.75 0.015625 L 1.078125 0.015625 L 0.78125 -0.109375 L 0.71875 -0.375 L 0.6875 -0.578125 L 0.71875 -1.234375 L 0.6875 -1.421875 L 0.71875 -1.609375 L 0.71875 -3.140625 L 0.6875 -3.3125 L 0.703125 -4.09375 L 0.71875 -4.265625 L 0.6875 -4.46875 L 0.71875 -5.390625 L 0.6875 -5.609375 L 0.71875 -6 L 0.6875 -6.359375 L 0.796875 -6.546875 L 1 -6.625 L 1.1875 -6.625 L 1.375 -6.640625 L 1.546875 -6.625 L 1.71875 -6.65625 L 1.921875 -6.625 L 2.6875 -6.65625 L 2.890625 -6.625 L 3.046875 -6.640625 L 3.234375 -6.625 L 3.4375 -6.640625 L 4.21875 -6.65625 L 4.375 -6.609375 L 4.578125 -6.609375 L 4.765625 -6.53125 L 4.859375 -6.359375 L 4.875 -5.78125 L 4.859375 -5.59375 L 4.875 -5.40625 L 4.78125 -5.234375 L 4.578125 -5.125 L 4.40625 -5.109375 L 3.046875 -5.125 L 2.859375 -5.09375 L 2.6875 -5.109375 L 2.46875 -5.03125 L 2.390625 -4.84375 L 2.390625 -4.546875 L 2.46875 -4.265625 L 2.671875 -4.171875 L 3.21875 -4.1875 L 3.609375 -4.15625 L 3.8125 -4.1875 L 4.375 -4.1875 L 4.59375 -4.0625 L 4.6875 -3.796875 L 4.65625 -2.9375 L 4.59375 -2.75 L 4.40625 -2.671875 L 4.1875 -2.6875 L 4 -2.671875 L 3.609375 -2.671875 L 3.25 -2.65625 L 2.9375 -2.6875 L 2.65625 -2.671875 L 2.484375 -2.5625 L 2.40625 -2.375 L 2.40625 -1.78125 L 2.46875 -1.609375 L 2.671875 -1.515625 L 2.890625 -1.53125 L 3.0625 -1.5 L 3.265625 -1.515625 L 3.46875 -1.484375 L 3.78125 -1.53125 L 4.265625 -1.515625 L 4.4375 -1.484375 L 4.65625 -1.515625 L 4.859375 -1.421875 L 4.953125 -1.234375 L 4.953125 -0.28125 L 4.859375 -0.078125 L 4.65625 0.015625 Z M 3.296875 0.03125 "/></g></g></g><g fill="#2563eb" fill-opacity="1"><g transform="translate(251.412701, 284.409445)"><g><path d="M 2.921875 0.03125 L 2.53125 -0.015625 L 2.34375 0.015625 L 1.1875 0 L 1 0.015625 L 0.8125 -0.078125 L 0.71875 -0.375 L 0.71875 -0.859375 L 0.6875 -1.03125 L 0.703125 -6.328125 L 0.78125 -6.53125 L 1 -6.625 L 1.1875 -6.609375 L 1.359375 -6.640625 L 3.515625 -6.625 L 4.078125 -6.53125 L 4.28125 -6.484375 L 4.4375 -6.40625 L 4.625 -6.375 L 4.8125 -6.265625 L 5.296875 -5.953125 L 5.796875 -5.390625 L 6.125 -4.890625 L 6.1875 -4.703125 L 6.3125 -4.34375 L 6.453125 -3.59375 L 6.453125 -3.3125 L 6.4375 -3.015625 L 6.4375 -2.8125 L 6.40625 -2.625 L 6.34375 -2.46875 L 6.3125 -2.265625 L 6.265625 -2.09375 L 6.109375 -1.71875 L 6 -1.5625 L 5.90625 -1.375 L 5.4375 -0.78125 L 4.796875 -0.34375 L 4.359375 -0.15625 L 3.96875 -0.09375 L 3.6875 -0.015625 L 3.5 -0.015625 L 3.203125 0.03125 Z M 2.890625 -1.53125 L 3.171875 -1.53125 L 3.578125 -1.578125 L 3.859375 -1.671875 L 4.1875 -1.875 L 4.53125 -2.28125 L 4.6875 -2.625 L 4.796875 -3.296875 L 4.640625 -4.125 L 4.546875 -4.296875 L 4.453125 -4.453125 L 4.3125 -4.625 L 4.171875 -4.765625 L 4.03125 -4.859375 L 3.859375 -4.953125 L 3.484375 -5.0625 L 3.21875 -5.078125 L 2.8125 -5.078125 L 2.515625 -5 L 2.421875 -4.796875 L 2.40625 -4.625 L 2.421875 -3.3125 L 2.375 -2.84375 L 2.421875 -2.375 L 2.40625 -1.984375 L 2.421875 -1.828125 L 2.5 -1.65625 L 2.71875 -1.546875 Z M 2.890625 -1.53125 "/></g></g></g><g fill="#2563eb" fill-opacity="1"><g transform="translate(259.444061, 284.409445)"><g/></g></g><g fill="#2563eb" fill-opacity="1"><g transform="translate(263.152289, 284.409445)"><g><path d="M 3.296875 0.078125 L 3.125 0.0625 L 2.953125 0.03125 L 2.765625 -0.03125 L 2.59375 -0.078125 L 2.15625 -0.25 L 1.75 -0.46875 L 1.328125 -0.84375 L 0.9375 -1.265625 L 0.53125 -2.09375 L 0.390625 -2.625 L 0.34375 -3.3125 L 0.4375 -4.140625 L 0.53125 -4.53125 L 0.765625 -5.0625 L 0.953125 -5.328125 L 1.203125 -5.65625 L 1.609375 -6.015625 L 1.890625 -6.234375 L 2.59375 -6.5625 L 3.515625 -6.75 L 4.09375 -6.734375 L 4.28125 -6.703125 L 4.46875 -6.703125 L 5.375 -6.390625 L 6.015625 -5.984375 L 6.28125 -5.703125 L 6.390625 -5.53125 L 6.53125 -5.375 L 6.609375 -5.21875 L 6.71875 -5.0625 L 6.765625 -4.859375 L 6.84375 -4.6875 L 6.890625 -4.484375 L 6.828125 -4.296875 L 6.671875 -4.21875 L 6.390625 -4.1875 L 6.125 -4.21875 L 5.734375 -4.21875 L 5.5625 -4.203125 L 5.34375 -4.3125 L 5.15625 -4.484375 L 5.0625 -4.625 L 4.78125 -4.90625 L 4.640625 -5 L 4.484375 -5.078125 L 4.1875 -5.15625 L 3.78125 -5.171875 L 3.140625 -5.09375 L 2.890625 -4.953125 L 2.65625 -4.765625 L 2.421875 -4.5 L 2.328125 -4.328125 L 2.1875 -3.984375 L 2.125 -3.609375 L 2.125 -3.03125 L 2.15625 -2.8125 L 2.203125 -2.640625 L 2.265625 -2.515625 L 2.328125 -2.328125 L 2.546875 -1.984375 L 2.8125 -1.75 L 3.15625 -1.578125 L 3.484375 -1.453125 L 3.765625 -1.421875 L 4.265625 -1.453125 L 4.59375 -1.625 L 4.734375 -1.6875 L 4.890625 -1.828125 L 5.109375 -2.0625 L 5.203125 -2.25 L 5.359375 -2.40625 L 5.578125 -2.515625 L 5.765625 -2.5 L 5.953125 -2.515625 L 6.140625 -2.484375 L 6.671875 -2.515625 L 6.859375 -2.40625 L 6.921875 -2.234375 L 6.671875 -1.515625 L 6.484375 -1.171875 L 6.265625 -0.875 L 6 -0.609375 L 5.53125 -0.28125 L 5.375 -0.203125 L 5.171875 -0.140625 L 5 -0.046875 L 4.4375 0.0625 L 3.78125 0.109375 Z M 3.296875 0.078125 "/></g></g></g><g fill="#2563eb" fill-opacity="1"><g transform="translate(271.524947, 284.409445)"><g><path d="M 5.59375 0.015625 L 5.390625 0 L 5.171875 -0.09375 L 4.984375 -0.234375 L 4.9375 -0.40625 L 4.84375 -0.59375 L 4.671875 -0.734375 L 4.453125 -0.84375 L 4.25 -0.8125 L 4.078125 -0.828125 L 3.15625 -0.828125 L 2.984375 -0.859375 L 2.578125 -0.8125 L 2.40625 -0.84375 L 2.203125 -0.734375 L 2.015625 -0.5625 L 1.84375 -0.25 L 1.671875 -0.078125 L 1.453125 -0.015625 L 0.921875 0.015625 L 0.734375 -0.015625 L 0.359375 0.015625 L 0.171875 -0.046875 L 0.125 -0.28125 L 0.1875 -0.46875 L 0.375 -0.859375 L 0.421875 -1.03125 L 0.515625 -1.15625 L 0.65625 -1.53125 L 0.828125 -1.84375 L 0.90625 -2.03125 L 1 -2.171875 L 1.046875 -2.375 L 2.015625 -4.40625 L 2.078125 -4.578125 L 2.1875 -4.765625 L 2.234375 -4.953125 L 2.328125 -5.09375 L 2.71875 -5.96875 L 2.796875 -6.09375 L 2.859375 -6.28125 L 2.953125 -6.453125 L 3.125 -6.609375 L 3.421875 -6.71875 L 3.734375 -6.625 L 3.890625 -6.453125 L 4.078125 -6.125 L 4.140625 -5.953125 L 4.234375 -5.78125 L 4.296875 -5.59375 L 4.921875 -4.265625 L 4.984375 -4.0625 L 5.1875 -3.71875 L 5.25 -3.5625 L 5.328125 -3.421875 L 5.390625 -3.21875 L 5.484375 -3.03125 L 5.578125 -2.890625 L 5.9375 -2.03125 L 6.125 -1.6875 L 6.265625 -1.34375 L 6.515625 -0.84375 L 6.65625 -0.5 L 6.71875 -0.28125 L 6.703125 -0.046875 L 6.4375 0 L 6.140625 0.015625 L 5.953125 -0.015625 Z M 3.4375 -2.34375 L 3.828125 -2.359375 L 3.96875 -2.421875 L 4 -2.59375 L 3.5625 -3.640625 L 3.421875 -3.71875 L 3.3125 -3.625 L 2.875 -2.609375 L 2.890625 -2.421875 L 3.03125 -2.359375 L 3.25 -2.375 Z M 3.4375 -2.34375 "/></g></g></g><g fill="#2563eb" fill-opacity="1"><g transform="translate(279.546808, 284.409445)"><g><path d="M 0.71875 -0.390625 L 0.71875 -1.796875 L 0.6875 -1.984375 L 0.703125 -2.75 L 0.71875 -2.9375 L 0.703125 -3.109375 L 0.703125 -3.296875 L 0.6875 -3.515625 L 0.71875 -3.890625 L 0.703125 -4.078125 L 0.6875 -6.25 L 0.8125 -6.515625 L 0.984375 -6.609375 L 1.53125 -6.65625 L 1.75 -6.65625 L 1.9375 -6.609375 L 2.125 -6.609375 L 2.296875 -6.65625 L 2.484375 -6.65625 L 2.671875 -6.625 L 3.25 -6.625 L 3.515625 -6.640625 L 3.828125 -6.625 L 4.359375 -6.5 L 4.71875 -6.390625 L 5.0625 -6.203125 L 5.59375 -5.640625 L 5.703125 -5.484375 L 5.78125 -5.328125 L 5.953125 -4.78125 L 5.96875 -4.59375 L 6 -4 L 5.875 -3.4375 L 5.5 -2.78125 L 5.375 -2.671875 L 5.234375 -2.515625 L 5.15625 -2.3125 L 5.15625 -2.09375 L 5.265625 -1.9375 L 5.578125 -1.453125 L 5.65625 -1.28125 L 5.984375 -0.796875 L 6.0625 -0.609375 L 6.171875 -0.484375 L 6.28125 -0.28125 L 6.21875 -0.0625 L 6.046875 0.015625 L 5.734375 0.03125 L 5.546875 0.015625 L 4.796875 0.015625 L 4.484375 -0.0625 L 4.265625 -0.234375 L 4.15625 -0.390625 L 4.09375 -0.59375 L 3.984375 -0.734375 L 3.796875 -1.078125 L 3.609375 -1.359375 L 3.53125 -1.53125 L 3.421875 -1.71875 L 3.21875 -1.875 L 2.671875 -1.953125 L 2.5 -1.84375 L 2.40625 -1.65625 L 2.390625 -1.046875 L 2.421875 -0.859375 L 2.40625 -0.6875 L 2.40625 -0.359375 L 2.3125 -0.078125 L 2.015625 0.015625 L 1.71875 0.015625 L 1.578125 0.03125 L 1.265625 0 L 1.078125 0.03125 L 0.8125 -0.09375 Z M 2.671875 -3.46875 L 2.890625 -3.484375 L 3.34375 -3.46875 L 3.515625 -3.484375 L 3.796875 -3.546875 L 3.96875 -3.625 L 4.0625 -3.703125 L 4.171875 -3.84375 L 4.265625 -4.046875 L 4.28125 -4.328125 L 4.25 -4.578125 L 4.1875 -4.71875 L 3.953125 -5.015625 L 3.78125 -5.0625 L 3.53125 -5.078125 L 3.265625 -5.140625 L 2.890625 -5.109375 L 2.6875 -5.109375 L 2.5 -5.03125 L 2.40625 -4.859375 L 2.390625 -4.453125 L 2.40625 -4.296875 L 2.40625 -3.734375 L 2.484375 -3.578125 Z M 2.671875 -3.46875 "/></g></g></g><g fill="#2563eb" fill-opacity="1"><g transform="translate(287.265298, 284.409445)"><g><path d="M 3.296875 0.03125 L 3.109375 0.015625 L 2.921875 0.03125 L 2.703125 0.015625 L 2.515625 -0.015625 L 2.140625 0.015625 L 1.96875 0 L 1.75 0.015625 L 1.078125 0.015625 L 0.78125 -0.109375 L 0.71875 -0.375 L 0.6875 -0.578125 L 0.71875 -1.234375 L 0.6875 -1.421875 L 0.71875 -1.609375 L 0.71875 -3.140625 L 0.6875 -3.3125 L 0.703125 -4.09375 L 0.71875 -4.265625 L 0.6875 -4.46875 L 0.71875 -5.390625 L 0.6875 -5.609375 L 0.71875 -6 L 0.6875 -6.359375 L 0.796875 -6.546875 L 1 -6.625 L 1.1875 -6.625 L 1.375 -6.640625 L 1.546875 -6.625 L 1.71875 -6.65625 L 1.921875 -6.625 L 2.6875 -6.65625 L 2.890625 -6.625 L 3.046875 -6.640625 L 3.234375 -6.625 L 3.4375 -6.640625 L 4.21875 -6.65625 L 4.375 -6.609375 L 4.578125 -6.609375 L 4.765625 -6.53125 L 4.859375 -6.359375 L 4.875 -5.78125 L 4.859375 -5.59375 L 4.875 -5.40625 L 4.78125 -5.234375 L 4.578125 -5.125 L 4.40625 -5.109375 L 3.046875 -5.125 L 2.859375 -5.09375 L 2.6875 -5.109375 L 2.46875 -5.03125 L 2.390625 -4.84375 L 2.390625 -4.546875 L 2.46875 -4.265625 L 2.671875 -4.171875 L 3.21875 -4.1875 L 3.609375 -4.15625 L 3.8125 -4.1875 L 4.375 -4.1875 L 4.59375 -4.0625 L 4.6875 -3.796875 L 4.65625 -2.9375 L 4.59375 -2.75 L 4.40625 -2.671875 L 4.1875 -2.6875 L 4 -2.671875 L 3.609375 -2.671875 L 3.25 -2.65625 L 2.9375 -2.6875 L 2.65625 -2.671875 L 2.484375 -2.5625 L 2.40625 -2.375 L 2.40625 -1.78125 L 2.46875 -1.609375 L 2.671875 -1.515625 L 2.890625 -1.53125 L 3.0625 -1.5 L 3.265625 -1.515625 L 3.46875 -1.484375 L 3.78125 -1.53125 L 4.265625 -1.515625 L 4.4375 -1.484375 L 4.65625 -1.515625 L 4.859375 -1.421875 L 4.953125 -1.234375 L 4.953125 -0.28125 L 4.859375 -0.078125 L 4.65625 0.015625 Z M 3.296875 0.03125 "/></g></g></g></svg>